<COLLADA xmlns="http://www.collada.org/2005/11/COLLADASchema" version="1.4.1">
  <asset>
    <contributor/>
    <created>2026-05-13T12:25:15.414969</created>
    <modified>2026-05-13T12:25:15.414971</modified>
    <unit name="meter" meter="1.0"/>
    <up_axis>Z_UP</up_axis>
  </asset>
  <library_effects>
    <effect id="effect_Solid037" name="effect_Solid037">
      <profile_COMMON>
        <technique sid="common">
          <phong>
            <emission>
              <color>0.0 0.0 0.0 1.0</color>
            </emission>
            <ambient>
              <color>0.0 0.0 0.0 1.0</color>
            </ambient>
            <diffuse>
              <color>0.9647058844566345 0.9647058844566345 0.9529411792755127 1.0</color>
            </diffuse>
            <specular>
              <color>1 1 1 1.0</color>
            </specular>
            <shininess>
              <float>0.0</float>
            </shininess>
            <reflective>
              <color>0.0 0.0 0.0 1.0</color>
            </reflective>
            <reflectivity>
              <float>0.0</float>
            </reflectivity>
            <transparent>
              <color>0.0 0.0 0.0 1.0</color>
            </transparent>
            <transparency>
              <float>1.0</float>
            </transparency>
          </phong>
        </technique>
        <extra>
          <technique profile="GOOGLEEARTH">
            <double_sided>0</double_sided>
          </technique>
        </extra>
      </profile_COMMON>
    </effect>
  </library_effects>
  <library_geometries>
    <geometry id="geometry0" name="20021-023_propeller v4:1">
      <mesh>
        <source id="cubeverts-array0">
          <float_array count="756" id="cubeverts-array0-array">-0.168 -2.1e-17 0.016 -0.168 -2.1e-17 0 -0.1677912 -0.008374108 0 -0.1677912 -0.008374108 0.016 -0.1671652 -0.0167274 0 -0.1671652 -0.0167274 0.016 -0.1661236 -0.0250391 0.016 -0.1661236 -0.0250391 0 -0.164669 -0.03328855 0.016 -0.164669 -0.03328855 0 -0.162805 -0.04145524 0.016 -0.162805 -0.04145524 0 -0.1605362 -0.04951887 0.016 -0.1605362 -0.04951887 0 -0.1578684 -0.05745938 0.016 -0.1578684 -0.05745938 0 -0.154808 -0.06525705 0.016 -0.154808 -0.06525705 0 -0.1513628 -0.07289247 0.016 -0.1513628 -0.07289247 0 -0.1475412 -0.08034667 0 -0.1475412 -0.08034667 0.016 -0.1433529 -0.08760111 0.016 -0.1433529 -0.08760111 0 -0.1388081 -0.09463777 0.016 -0.1388081 -0.09463777 0 -0.1339183 -0.1014391 0.016 -0.1339183 -0.1014391 0 -0.1286955 -0.1079883 0.016 -0.1286955 -0.1079883 0 -0.1231527 -0.114269 0.016 -0.1231527 -0.114269 0 -0.1173038 -0.1202656 0.016 -0.1173038 -0.1202656 0 -0.1111632 -0.1259632 0.016 -0.1111632 -0.1259632 0 -0.1047463 -0.1313477 0.016 -0.1047463 -0.1313477 0 -0.09806894 -0.1364056 0.016 -0.09806894 -0.1364056 0 -0.09114777 -0.1411244 0.016 -0.09114777 -0.1411244 0 -0.084 -0.1454923 0 -0.084 -0.1454923 0.016 -0.07664339 -0.1494985 0.016 -0.07664339 -0.1494985 0 -0.06909623 -0.153133 0.016 -0.06909623 -0.153133 0 -0.06137729 -0.1563868 0.016 -0.06137729 -0.1563868 0 -0.05350576 -0.1592518 0.016 -0.05350576 -0.1592518 0 -0.0455012 -0.1617209 0.016 -0.0455012 -0.1617209 0 -0.03738352 -0.1637879 0.016 -0.03738352 -0.1637879 0 -0.02917289 -0.1654477 0.016 -0.02917289 -0.1654477 0 -0.02088974 -0.1666962 0.016 -0.02088974 -0.1666962 0 -0.01255466 -0.1675302 0.016 -0.01255466 -0.1675302 0 -0.004188356 -0.1679478 0.016 -0.004188356 -0.1679478 0 0.004188356 -0.1679478 0.016 0.004188356 -0.1679478 0 0.01255466 -0.1675302 0.016 0.01255466 -0.1675302 0 0.02088974 -0.1666962 0.016 0.02088974 -0.1666962 0 0.02917289 -0.1654477 0.016 0.02917289 -0.1654477 0 0.03738352 -0.1637879 0.016 0.03738352 -0.1637879 0 0.0455012 -0.1617209 0.016 0.0455012 -0.1617209 0 0.05350576 -0.1592518 0.016 0.05350576 -0.1592518 0 0.06137729 -0.1563868 0.016 0.06137729 -0.1563868 0 0.06909623 -0.153133 0.016 0.06909623 -0.153133 0 0.07664339 -0.1494985 0.016 0.07664339 -0.1494985 0 0.084 -0.1454923 0.016 0.084 -0.1454923 0 0.09114777 -0.1411244 0.016 0.09114777 -0.1411244 0 0.09806894 -0.1364056 0 0.09806894 -0.1364056 0.016 0.1047463 -0.1313477 0.016 0.1047463 -0.1313477 0 0.1111632 -0.1259632 0.016 0.1111632 -0.1259632 0 0.1173038 -0.1202656 0.016 0.1173038 -0.1202656 0 0.1231527 -0.114269 0.016 0.1231527 -0.114269 0 0.1286955 -0.1079883 0.016 0.1286955 -0.1079883 0 0.1339183 -0.1014391 0.016 0.1339183 -0.1014391 0 0.1388081 -0.09463777 0.016 0.1388081 -0.09463777 0 0.1433529 -0.08760111 0.016 0.1433529 -0.08760111 0 0.1475412 -0.08034667 0.016 0.1475412 -0.08034667 0 0.1513628 -0.07289247 0.016 0.1513628 -0.07289247 0 0.154808 -0.06525705 0.016 0.154808 -0.06525705 0 0.1578684 -0.05745938 0.016 0.1578684 -0.05745938 0 0.1605362 -0.04951887 0.016 0.1605362 -0.04951887 0 0.162805 -0.04145524 0.016 0.162805 -0.04145524 0 0.164669 -0.03328855 0.016 0.164669 -0.03328855 0 0.1661236 -0.0250391 0.016 0.1661236 -0.0250391 0 0.1671652 -0.0167274 0.016 0.1671652 -0.0167274 0 0.1677912 -0.008374108 0.016 0.1677912 -0.008374108 0 0.168 2.047848e-15 0.016 0.168 2.047848e-15 0 0.1677912 0.008374108 0.016 0.1677912 0.008374108 0 0.1671652 0.0167274 0.016 0.1671652 0.0167274 0 0.1661236 0.0250391 0.016 0.1661236 0.0250391 0 0.164669 0.03328855 0.016 0.164669 0.03328855 0 0.162805 0.04145524 0.016 0.162805 0.04145524 0 0.1605362 0.04951887 0.016 0.1605362 0.04951887 0 0.1578684 0.05745938 0 0.1578684 0.05745938 0.016 0.154808 0.06525705 0.016 0.154808 0.06525705 0 0.1513628 0.07289247 0.016 0.1513628 0.07289247 0 0.1475412 0.08034667 0.016 0.1475412 0.08034667 0 0.1433529 0.08760111 0.016 0.1433529 0.08760111 0 0.1388081 0.09463777 0.016 0.1388081 0.09463777 0 0.1339183 0.1014391 0.016 0.1339183 0.1014391 0 0.1286955 0.1079883 0.016 0.1286955 0.1079883 0 0.1231527 0.114269 0.016 0.1231527 0.114269 0 0.1173038 0.1202656 0.016 0.1173038 0.1202656 0 0.1111632 0.1259632 0.016 0.1111632 0.1259632 0 0.1047463 0.1313477 0 0.1047463 0.1313477 0.016 0.09806894 0.1364056 0.016 0.09806894 0.1364056 0 0.09114777 0.1411244 0.016 0.09114777 0.1411244 0 0.084 0.1454923 0.016 0.084 0.1454923 0 0.07664339 0.1494985 0.016 0.07664339 0.1494985 0 0.06909623 0.153133 0.016 0.06909623 0.153133 0 0.06137729 0.1563868 0.016 0.06137729 0.1563868 0 0.05350576 0.1592518 0.016 0.05350576 0.1592518 0 0.0455012 0.1617209 0.016 0.0455012 0.1617209 0 0.03738352 0.1637879 0.016 0.03738352 0.1637879 0 0.02917289 0.1654477 0.016 0.02917289 0.1654477 0 0.02088974 0.1666962 0.016 0.02088974 0.1666962 0 0.01255466 0.1675302 0 0.01255466 0.1675302 0.016 0.004188356 0.1679478 0.016 0.004188356 0.1679478 0 -0.004188356 0.1679478 0.016 -0.004188356 0.1679478 0 -0.01255466 0.1675302 0.016 -0.01255466 0.1675302 0 -0.02088974 0.1666962 0.016 -0.02088974 0.1666962 0 -0.02917289 0.1654477 0.016 -0.02917289 0.1654477 0 -0.03738352 0.1637879 0.016 -0.03738352 0.1637879 0 -0.0455012 0.1617209 0.016 -0.0455012 0.1617209 0 -0.05350576 0.1592518 0.016 -0.05350576 0.1592518 0 -0.06137729 0.1563868 0 -0.06137729 0.1563868 0.016 -0.06909623 0.153133 0.016 -0.06909623 0.153133 0 -0.07664339 0.1494985 0 -0.07664339 0.1494985 0.016 -0.084 0.1454923 0.016 -0.084 0.1454923 0 -0.09114777 0.1411244 0.016 -0.09114777 0.1411244 0 -0.09806894 0.1364056 0.016 -0.09806894 0.1364056 0 -0.1047463 0.1313477 0.016 -0.1047463 0.1313477 0 -0.1111632 0.1259632 0.016 -0.1111632 0.1259632 0 -0.1173038 0.1202656 0.016 -0.1173038 0.1202656 0 -0.1231527 0.114269 0.016 -0.1231527 0.114269 0 -0.1286955 0.1079883 0.016 -0.1286955 0.1079883 0 -0.1339183 0.1014391 0.016 -0.1339183 0.1014391 0 -0.1388081 0.09463777 0.016 -0.1388081 0.09463777 0 -0.1433529 0.08760111 0.016 -0.1433529 0.08760111 0 -0.1475412 0.08034667 0.016 -0.1475412 0.08034667 0 -0.1513628 0.07289247 0.016 -0.1513628 0.07289247 0 -0.154808 0.06525705 0.016 -0.154808 0.06525705 0 -0.1578684 0.05745938 0.016 -0.1578684 0.05745938 0 -0.1605362 0.04951887 0.016 -0.1605362 0.04951887 0 -0.162805 0.04145524 0.016 -0.162805 0.04145524 0 -0.164669 0.03328855 0.016 -0.164669 0.03328855 0 -0.1661236 0.0250391 0.016 -0.1661236 0.0250391 0 -0.1671652 0.0167274 0.016 -0.1671652 0.0167274 0 -0.1677912 0.008374108 0 -0.1677912 0.008374108 0.016</float_array>
          <technique_common>
            <accessor count="252" source="#cubeverts-array0-array" stride="3">
              <param type="float" name="X"/>
              <param type="float" name="Y"/>
              <param type="float" name="Z"/>
            </accessor>
          </technique_common>
        </source>
        <source id="cubenormals-array0">
          <float_array count="1500" id="cubenormals-array0-array">-0.9996892 -0.02493004 -0 -0.9972038 -0.07473001 -0 -0.9996892 -0.02493004 -0 -0.9972038 -0.07473001 -0 -0.9922391 -0.1243442 -0 -0.9922391 -0.1243442 0 -0.9848076 -0.1736487 -0 -0.9848076 -0.1736487 0 -0.9749278 -0.2225214 -0 -0.9749278 -0.2225214 0 -0.9626242 -0.2708405 -0 -0.9626242 -0.2708405 0 -0.9479277 -0.3184856 -0 -0.9479277 -0.3184856 0 -0.9308735 -0.3653416 -0 -0.9308735 -0.3653416 0 -0.9115058 -0.4112874 -0 -0.8898724 -0.4562095 -0 -0.9115058 -0.4112874 0 -0.8898724 -0.4562095 -0 -0.8660253 -0.5000001 0 -0.8660253 -0.5000001 -0 -0.840026 -0.542546 0 -0.840026 -0.542546 -0 -0.8119374 -0.5837445 0 -0.8119374 -0.5837445 -0 -0.7818316 -0.6234896 0 -0.7818316 -0.6234896 -0 -0.7497814 -0.6616856 0 -0.7497814 -0.6616856 -0 -0.7158669 -0.6982368 0 -0.7158669 -0.6982368 -0 -0.6801726 -0.7330519 0 -0.6801726 -0.7330519 -0 -0.6427872 -0.7660447 0 -0.6427872 -0.7660447 -0 -0.6038044 -0.7971326 0 -0.6038044 -0.7971326 -0 -0.5633209 -0.8262383 0 -0.5633209 -0.8262383 -0 -0.5214344 -0.8532914 -0 -0.5214344 -0.8532914 -0 -0.4782537 -0.8782217 0 -0.4782537 -0.8782217 -0 -0.4338839 -0.9009687 -0 -0.4338839 -0.9009687 0 -0.3884358 -0.9214758 -0 -0.3884358 -0.9214758 0 -0.3420202 -0.9396926 -0 -0.3420202 -0.9396926 0 -0.2947542 -0.9555731 -0 -0.2947542 -0.9555731 0 -0.2467575 -0.9690772 -0 -0.2467575 -0.9690772 0 -0.1981469 -0.9801723 -0 -0.1981469 -0.9801723 0 -0.1490411 -0.988831 -0 -0.1490411 -0.988831 0 -0.09956897 -0.9950306 -0 -0.09956897 -0.9950306 0 -0.04984551 -0.9987569 -0 -0.04984551 -0.9987569 0 0 -1 -0 -0 -1 0 0.04984551 -0.9987569 0 0.04984551 -0.9987569 0 0.09956897 -0.9950306 0 0.09956897 -0.9950306 0 0.1490411 -0.988831 0 0.1490411 -0.988831 0 0.1981469 -0.9801723 0 0.1981469 -0.9801723 0 0.2467575 -0.9690772 0 0.2467575 -0.9690772 0 0.2947542 -0.9555731 0 0.2947542 -0.9555731 0 0.3420202 -0.9396926 0 0.3420202 -0.9396926 0 0.3884358 -0.9214758 0 0.3884358 -0.9214758 0 0.4338839 -0.9009687 0 0.4338839 -0.9009687 0 0.4782537 -0.8782217 0 0.4782537 -0.8782217 0 0.5214344 -0.8532914 0 0.5214344 -0.8532914 0 0.5633209 -0.8262383 0 0.5633209 -0.8262383 0 0.6038044 -0.7971326 0 0.6038044 -0.7971326 0 0.6427872 -0.7660447 0 0.6427872 -0.7660447 0 0.6801726 -0.7330519 0 0.6801726 -0.7330519 0 0.7158669 -0.6982368 0 0.7158669 -0.6982368 0 0.7497814 -0.6616856 0 0.7497814 -0.6616856 0 0.7818316 -0.6234896 0 0.7818316 -0.6234896 0 0.8119374 -0.5837445 0 0.8119374 -0.5837445 0 0.840026 -0.542546 0 0.840026 -0.542546 0 0.8660253 -0.5000001 0 0.8660253 -0.5000001 0 0.8898724 -0.4562095 0 0.8898724 -0.4562095 0 0.9115058 -0.4112874 0 0.9115058 -0.4112874 0 0.9308735 -0.3653416 0 0.9308735 -0.3653416 0 0.9479277 -0.3184856 0 0.9479277 -0.3184856 0 0.9626242 -0.2708405 0 0.9626242 -0.2708405 0 0.9749278 -0.2225214 0 0.9749278 -0.2225214 0 0.9848076 -0.1736487 0 0.9848076 -0.1736487 0 0.9922391 -0.1243442 0 0.9922391 -0.1243442 0 0.9972038 -0.07473001 0 0.9972038 -0.07473001 0 0.9996892 -0.02493004 0 0.9996892 -0.02493004 0 0.9996892 0.02493004 0 0.9996892 0.02493004 0 0.9972038 0.07473001 0 0.9972038 0.07473001 0 0.9922391 0.1243442 0 0.9922391 0.1243442 0 0.9848076 0.1736487 0 0.9848076 0.1736487 0 0.9749278 0.2225214 0 0.9749278 0.2225214 0 0.9626242 0.2708405 0 0.9626242 0.2708405 0 0.9479277 0.3184856 0 0.9479277 0.3184856 0 0.9308735 0.3653416 0 0.9308735 0.3653416 0 0.9115058 0.4112874 0 0.9115058 0.4112874 0 0.8898724 0.4562095 0 0.8898724 0.4562095 0 0.8660253 0.5000001 0 0.8660253 0.5000001 0 0.840026 0.542546 0 0.840026 0.542546 0 0.8119374 0.5837445 0 0.8119374 0.5837445 0 0.7818316 0.6234896 0 0.7818316 0.6234896 0 0.7497814 0.6616856 0 0.7497814 0.6616856 0 0.7158669 0.6982368 0 0.7158669 0.6982368 0 0.6801726 0.7330519 0 0.6427872 0.7660447 0 0.6801726 0.7330519 0 0.6427872 0.7660447 0 0.6038044 0.7971326 0 0.6038044 0.7971326 0 0.5633209 0.8262383 0 0.5633209 0.8262383 0 0.5214344 0.8532914 0 0.5214344 0.8532914 0 0.4782537 0.8782217 0 0.4782537 0.8782217 0 0.4338839 0.9009687 0 0.4338839 0.9009687 0 0.3884358 0.9214758 0 0.3884358 0.9214758 0 0.3420202 0.9396926 0 0.3420202 0.9396926 0 0.2947542 0.9555731 0 0.2947542 0.9555731 0 0.2467575 0.9690772 0 0.2467575 0.9690772 0 0.1981469 0.9801723 0 0.1981469 0.9801723 0 0.1490411 0.988831 0 0.09956897 0.9950306 0 0.1490411 0.988831 0 0.09956897 0.9950306 0 0.04984551 0.9987569 0 0.04984551 0.9987569 0 0 1 0 -0 1 0 -0.04984551 0.9987569 0 -0.04984551 0.9987569 0 -0.09956897 0.9950306 0 -0.09956897 0.9950306 0 -0.1490411 0.988831 0 -0.1490411 0.988831 0 -0.1981469 0.9801723 0 -0.1981469 0.9801723 0 -0.2467575 0.9690772 0 -0.2467575 0.9690772 0 -0.2947542 0.9555731 0 -0.3420202 0.9396926 0 -0.2947542 0.9555731 0 -0.3420202 0.9396926 0 -0.3884358 0.9214758 0 -0.4338839 0.9009687 0 -0.3884358 0.9214758 0 -0.4338839 0.9009687 0 -0.4782537 0.8782217 0 -0.4782537 0.8782217 0 -0.5214344 0.8532914 0 -0.5214344 0.8532914 0 -0.5633209 0.8262383 0 -0.5633209 0.8262383 0 -0.6038044 0.7971326 0 -0.6038044 0.7971326 0 -0.6427872 0.7660447 0 -0.6427872 0.7660447 0 -0.6801726 0.7330519 0 -0.6801726 0.7330519 0 -0.7158669 0.6982368 0 -0.7158669 0.6982368 0 -0.7497814 0.6616856 0 -0.7497814 0.6616856 0 -0.7818316 0.6234896 0 -0.7818316 0.6234896 0 -0.8119374 0.5837445 0 -0.8119374 0.5837445 0 -0.840026 0.542546 0 -0.840026 0.542546 0 -0.8660253 0.5000001 0 -0.8660253 0.5000001 0 -0.8898724 0.4562095 0 -0.8898724 0.4562095 0 -0.9115058 0.4112874 0 -0.9115058 0.4112874 0 -0.9308735 0.3653416 0 -0.9308735 0.3653416 0 -0.9479277 0.3184856 0 -0.9479277 0.3184856 0 -0.9626242 0.2708405 0 -0.9626242 0.2708405 0 -0.9749278 0.2225214 0 -0.9749278 0.2225214 0 -0.9848076 0.1736487 0 -0.9848076 0.1736487 0 -0.9922391 0.1243442 0 -0.9972038 0.07473001 0 -0.9922391 0.1243442 0 -0.9972038 0.07473001 0 -0.9996892 0.02493004 0 -0.9996892 0.02493004 0 0 0 1 0 0 1 0 0 1 0 0 1 0 0 1 0 0 1 0 0 1 0 0 1 0 0 1 0 0 1 0 0 1 0 0 1 0 0 1 0 0 1 0 0 1 0 0 1 0 0 1 0 0 1 0 0 1 0 0 1 0 0 1 0 0 1 0 0 1 0 0 1 0 0 1 0 0 1 0 0 1 0 0 1 0 0 1 0 0 1 0 0 1 0 0 1 0 0 1 0 0 1 0 0 1 0 0 1 0 0 1 0 0 1 0 0 1 0 0 1 0 0 1 0 0 1 0 0 1 0 0 1 0 0 1 0 0 1 0 0 1 0 0 1 0 0 1 0 0 1 0 0 1 0 0 1 0 0 1 0 0 1 0 0 1 0 0 1 0 0 1 0 0 1 0 0 1 0 0 1 0 0 1 0 0 1 0 0 1 0 0 1 0 0 1 0 0 1 0 0 1 0 0 1 0 0 1 0 0 1 0 0 1 0 0 1 0 0 1 0 0 1 0 0 1 0 0 1 0 0 1 0 0 1 0 0 1 0 0 1 0 0 1 0 0 1 0 0 1 0 0 1 0 0 1 0 0 1 0 0 1 0 0 1 0 0 1 0 0 1 0 0 1 0 0 1 0 0 1 0 0 1 0 0 1 0 0 1 0 0 1 0 0 1 0 0 1 0 0 1 0 0 1 0 0 1 0 0 1 0 0 1 0 0 1 0 0 1 0 0 1 0 0 1 0 0 1 0 0 1 0 0 1 0 0 1 0 0 1 0 0 1 0 0 1 0 0 1 0 0 1 0 0 1 0 0 1 0 0 1 0 0 1 0 0 1 0 0 1 0 0 1 0 0 -1 0 0 -1 0 0 -1 0 0 -1 0 0 -1 0 0 -1 0 0 -1 0 0 -1 0 0 -1 0 0 -1 0 0 -1 0 0 -1 0 0 -1 0 0 -1 0 0 -1 0 0 -1 0 0 -1 0 0 -1 0 0 -1 0 0 -1 0 0 -1 0 0 -1 0 0 -1 0 0 -1 0 0 -1 0 0 -1 0 0 -1 0 0 -1 0 0 -1 0 0 -1 0 0 -1 0 0 -1 0 -0 -1 0 -0 -1 0 0 -1 0 -0 -1 0 0 -1 0 0 -1 0 0 -1 0 0 -1 0 -0 -1 0 -0 -1 0 0 -1 0 -0 -1 0 -0 -1 0 0 -1 0 0 -1 0 0 -1 0 0 -1 0 -0 -1 0 0 -1 0 -0 -1 0 -0 -1 0 0 -1 0 0 -1 0 -0 -1 0 -0 -1 0 -0 -1 0 0 -1 0 -0 -1 0 -0 -1 0 -0 -1 0 0 -1 0 0 -1 0 0 -1 0 0 -1 0 0 -1 0 -0 -1 0 -0 -1 0 -0 -1 0 0 -1 0 0 -1 0 0 -1 0 -0 -1 0 0 -1 0 0 -1 0 -0 -1 0 -0 -1 0 -0 -1 0 0 -1 0 0 -1 0 -0 -1 0 0 -1 0 -0 -1 0 -0 -1 0 0 -1 0 0 -1 0 -0 -1 0 -0 -1 0 -0 -1 0 -0 -1 0 0 -1 -0 -0 -1 -0 -0 -1 -0 -0 -1 0 0 -1 0 0 -1 -0 -0 -1 -0 -0 -1 0 0 -1 0 0 -1 -0 -0 -1 -0 -0 -1 0 0 -1 0 0 -1 0 0 -1 0 0 -1 0 0 -1 0 0 -1 0 0 -1 -0 -0 -1 0 -0 -1 -0 -0 -1 -0 -0 -1 0 0 -1 0 0 -1 0 -0 -1 -0 -0 -1 0 0 -1 0 0 -1 0 0 -1 0 0 -1 0 0 -1 -0 -0 -1</float_array>
          <technique_common>
            <accessor count="500" source="#cubenormals-array0-array" stride="3">
              <param type="float" name="X"/>
              <param type="float" name="Y"/>
              <param type="float" name="Z"/>
            </accessor>
          </technique_common>
        </source>
        <vertices id="cubeverts-array0-vertices">
          <input semantic="POSITION" source="#cubeverts-array0"/>
        </vertices>
        <triangles count="500" material="ref_Solid037">
          <input offset="0" semantic="VERTEX" source="#cubeverts-array0-vertices"/>
          <input offset="1" semantic="NORMAL" source="#cubenormals-array0"/>
          <p>0 0 1 0 2 0 3 1 2 1 4 1 3 2 0 2 2 2 5 3 3 3 4 3 6 4 4 4 7 4 6 5 5 5 4 5 8 6 7 6 9 6 8 7 6 7 7 7 10 8 9 8 11 8 10 9 8 9 9 9 12 10 11 10 13 10 12 11 10 11 11 11 14 12 13 12 15 12 14 13 12 13 13 13 16 14 15 14 17 14 16 15 14 15 15 15 18 16 17 16 19 16 18 17 19 17 20 17 18 18 16 18 17 18 21 19 18 19 20 19 22 20 21 20 20 20 22 21 20 21 23 21 24 22 22 22 23 22 24 23 23 23 25 23 26 24 24 24 25 24 26 25 25 25 27 25 28 26 26 26 27 26 28 27 27 27 29 27 30 28 28 28 29 28 30 29 29 29 31 29 32 30 30 30 31 30 32 31 31 31 33 31 34 32 32 32 33 32 34 33 33 33 35 33 36 34 34 34 35 34 36 35 35 35 37 35 38 36 36 36 37 36 38 37 37 37 39 37 40 38 38 38 39 38 40 39 39 39 41 39 40 40 41 40 42 40 43 41 40 41 42 41 44 42 43 42 42 42 44 43 42 43 45 43 46 44 45 44 47 44 46 45 44 45 45 45 48 46 47 46 49 46 48 47 46 47 47 47 50 48 49 48 51 48 50 49 48 49 49 49 52 50 51 50 53 50 52 51 50 51 51 51 54 52 53 52 55 52 54 53 52 53 53 53 56 54 55 54 57 54 56 55 54 55 55 55 58 56 57 56 59 56 58 57 56 57 57 57 60 58 59 58 61 58 60 59 58 59 59 59 62 60 61 60 63 60 62 61 60 61 61 61 64 62 63 62 65 62 64 63 62 63 63 63 66 64 65 64 67 64 66 65 64 65 65 65 68 66 67 66 69 66 68 67 66 67 67 67 70 68 69 68 71 68 70 69 68 69 69 69 72 70 71 70 73 70 72 71 70 71 71 71 74 72 72 72 73 72 74 73 73 73 75 73 76 74 74 74 75 74 76 75 75 75 77 75 78 76 76 76 77 76 78 77 77 77 79 77 80 78 78 78 79 78 80 79 79 79 81 79 82 80 80 80 81 80 82 81 81 81 83 81 84 82 82 82 83 82 84 83 83 83 85 83 86 84 84 84 85 84 86 85 85 85 87 85 86 86 87 86 88 86 89 87 86 87 88 87 90 88 89 88 88 88 90 89 88 89 91 89 92 90 90 90 91 90 92 91 91 91 93 91 94 92 92 92 93 92 94 93 93 93 95 93 96 94 94 94 95 94 96 95 95 95 97 95 98 96 96 96 97 96 98 97 97 97 99 97 100 98 98 98 99 98 100 99 99 99 101 99 102 100 100 100 101 100 102 101 101 101 103 101 104 102 102 102 103 102 104 103 103 103 105 103 106 104 104 104 105 104 106 105 105 105 107 105 108 106 106 106 107 106 108 107 107 107 109 107 110 108 108 108 109 108 110 109 109 109 111 109 112 110 110 110 111 110 112 111 111 111 113 111 114 112 112 112 113 112 114 113 113 113 115 113 116 114 115 114 117 114 116 115 114 115 115 115 118 116 117 116 119 116 118 117 116 117 117 117 120 118 119 118 121 118 120 119 118 119 119 119 122 120 121 120 123 120 122 121 120 121 121 121 124 122 122 122 123 122 124 123 123 123 125 123 126 124 124 124 125 124 126 125 125 125 127 125 128 126 126 126 127 126 128 127 127 127 129 127 130 128 128 128 129 128 130 129 129 129 131 129 132 130 130 130 131 130 132 131 131 131 133 131 134 132 132 132 133 132 134 133 133 133 135 133 136 134 134 134 135 134 136 135 135 135 137 135 138 136 136 136 137 136 138 137 137 137 139 137 138 138 139 138 140 138 141 139 138 139 140 139 142 140 141 140 140 140 142 141 140 141 143 141 144 142 142 142 143 142 144 143 143 143 145 143 146 144 144 144 145 144 146 145 145 145 147 145 148 146 146 146 147 146 148 147 147 147 149 147 150 148 149 148 151 148 150 149 148 149 149 149 152 150 151 150 153 150 152 151 150 151 151 151 154 152 153 152 155 152 154 153 152 153 153 153 156 154 155 154 157 154 156 155 154 155 155 155 158 156 157 156 159 156 158 157 156 157 157 157 160 158 159 158 161 158 160 159 161 159 162 159 160 160 158 160 159 160 163 161 160 161 162 161 164 162 162 162 165 162 164 163 163 163 162 163 166 164 165 164 167 164 166 165 164 165 165 165 168 166 167 166 169 166 168 167 166 167 167 167 170 168 169 168 171 168 170 169 168 169 169 169 172 170 171 170 173 170 172 171 170 171 171 171 174 172 173 172 175 172 174 173 172 173 173 173 176 174 174 174 175 174 176 175 175 175 177 175 178 176 176 176 177 176 178 177 177 177 179 177 180 178 178 178 179 178 180 179 179 179 181 179 182 180 180 180 181 180 182 181 181 181 183 181 184 182 183 182 185 182 184 183 185 183 186 183 184 184 182 184 183 184 187 185 184 185 186 185 188 186 186 186 189 186 188 187 187 187 186 187 190 188 189 188 191 188 190 189 188 189 189 189 192 190 191 190 193 190 192 191 190 191 191 191 194 192 193 192 195 192 194 193 192 193 193 193 196 194 195 194 197 194 196 195 194 195 195 195 198 196 197 196 199 196 198 197 196 197 197 197 200 198 199 198 201 198 200 199 198 199 199 199 202 200 201 200 203 200 202 201 203 201 204 201 202 202 200 202 201 202 205 203 202 203 204 203 206 204 204 204 207 204 206 205 207 205 208 205 206 206 205 206 204 206 209 207 206 207 208 207 210 208 208 208 211 208 210 209 209 209 208 209 212 210 211 210 213 210 212 211 210 211 211 211 214 212 213 212 215 212 214 213 212 213 213 213 216 214 215 214 217 214 216 215 214 215 215 215 218 216 217 216 219 216 218 217 216 217 217 217 220 218 219 218 221 218 220 219 218 219 219 219 222 220 221 220 223 220 222 221 220 221 221 221 224 222 222 222 223 222 224 223 223 223 225 223 226 224 224 224 225 224 226 225 225 225 227 225 228 226 226 226 227 226 228 227 227 227 229 227 230 228 228 228 229 228 230 229 229 229 231 229 232 230 230 230 231 230 232 231 231 231 233 231 234 232 232 232 233 232 234 233 233 233 235 233 236 234 234 234 235 234 236 235 235 235 237 235 238 236 236 236 237 236 238 237 237 237 239 237 240 238 238 238 239 238 240 239 239 239 241 239 242 240 240 240 241 240 242 241 241 241 243 241 244 242 242 242 243 242 244 243 243 243 245 243 246 244 244 244 245 244 246 245 245 245 247 245 248 246 247 246 249 246 248 247 249 247 250 247 248 248 246 248 247 248 251 249 248 249 250 249 0 250 250 250 1 250 0 251 251 251 250 251 38 252 34 252 36 252 24 253 26 253 28 253 24 254 28 254 30 254 43 255 32 255 34 255 43 256 38 256 40 256 43 257 34 257 38 257 21 258 22 258 24 258 21 259 30 259 32 259 21 260 24 260 30 260 21 261 32 261 43 261 16 262 18 262 21 262 50 263 43 263 44 263 50 264 44 264 46 264 50 265 46 265 48 265 12 266 14 266 16 266 52 267 43 267 50 267 10 268 12 268 16 268 8 269 21 269 43 269 8 270 16 270 21 270 8 271 43 271 52 271 8 272 10 272 16 272 58 273 54 273 56 273 60 274 52 274 54 274 60 275 8 275 52 275 60 276 54 276 58 276 64 277 60 277 62 277 66 278 60 278 64 278 68 279 60 279 66 279 246 280 0 280 3 280 246 281 3 281 5 281 246 282 5 282 6 282 246 283 6 283 8 283 246 284 248 284 251 284 246 285 251 285 0 285 72 286 68 286 70 286 242 287 244 287 246 287 74 288 60 288 68 288 74 289 68 289 72 289 74 290 8 290 60 290 74 291 246 291 8 291 238 292 242 292 246 292 238 293 240 293 242 293 78 294 74 294 76 294 232 295 234 295 236 295 232 296 236 296 238 296 86 297 74 297 78 297 86 298 78 298 80 298 86 299 80 299 82 299 86 300 82 300 84 300 228 301 230 301 232 301 89 302 74 302 86 302 226 303 232 303 238 303 226 304 228 304 232 304 90 305 246 305 74 305 90 306 74 306 89 306 224 307 238 307 246 307 224 308 226 308 238 308 222 309 224 309 246 309 96 310 92 310 94 310 214 311 216 311 218 311 214 312 218 312 220 312 214 313 220 313 222 313 102 314 246 314 90 314 102 315 90 315 92 315 102 316 96 316 98 316 102 317 98 317 100 317 102 318 92 318 96 318 209 319 210 319 212 319 206 320 212 320 214 320 206 321 209 321 212 321 110 322 102 322 104 322 110 323 104 323 106 323 110 324 106 324 108 324 202 325 205 325 206 325 114 326 110 326 112 326 114 327 102 327 110 327 198 328 200 328 202 328 198 329 202 329 206 329 118 330 222 330 246 330 118 331 246 331 102 331 118 332 114 332 116 332 118 333 214 333 222 333 118 334 102 334 114 334 196 335 198 335 206 335 196 336 206 336 214 336 122 337 118 337 120 337 124 338 118 338 122 338 188 339 196 339 214 339 188 340 190 340 192 340 188 341 192 341 194 341 188 342 194 342 196 342 136 343 132 343 134 343 178 344 180 344 182 344 178 345 182 345 184 345 178 346 184 346 187 346 138 347 132 347 136 347 138 348 130 348 132 348 176 349 178 349 187 349 176 350 187 350 188 350 142 351 130 351 138 351 142 352 138 352 141 352 172 353 174 353 176 353 170 354 172 354 176 354 146 355 130 355 142 355 146 356 128 356 130 356 146 357 142 357 144 357 148 358 118 358 124 358 148 359 128 359 146 359 148 360 124 360 126 360 148 361 126 361 128 361 166 362 176 362 188 362 166 363 188 363 214 363 166 364 170 364 176 364 166 365 168 365 170 365 163 366 214 366 118 366 163 367 118 367 148 367 163 368 166 368 214 368 163 369 164 369 166 369 154 370 148 370 150 370 154 371 150 371 152 371 156 372 148 372 154 372 158 373 163 373 148 373 158 374 148 374 156 374 158 375 160 375 163 375 35 376 39 376 37 376 27 377 25 377 29 377 29 378 25 378 31 378 33 379 42 379 35 379 39 380 42 380 41 380 35 381 42 381 39 381 23 382 20 382 25 382 31 383 20 383 33 383 25 384 20 384 31 384 33 385 20 385 42 385 19 386 17 386 20 386 42 387 51 387 45 387 45 388 51 388 47 388 47 389 51 389 49 389 15 390 13 390 17 390 42 391 53 391 51 391 13 392 11 392 17 392 20 393 9 393 42 393 17 394 9 394 20 394 42 395 9 395 53 395 11 396 9 396 17 396 55 397 59 397 57 397 53 398 61 398 55 398 9 399 61 399 53 399 55 400 61 400 59 400 61 401 65 401 63 401 61 402 67 402 65 402 61 403 69 403 67 403 1 404 247 404 2 404 2 405 247 405 4 405 4 406 247 406 7 406 7 407 247 407 9 407 249 408 247 408 250 408 250 409 247 409 1 409 69 410 73 410 71 410 245 411 243 411 247 411 61 412 75 412 69 412 69 413 75 413 73 413 9 414 75 414 61 414 247 415 75 415 9 415 243 416 239 416 247 416 241 417 239 417 243 417 75 418 79 418 77 418 235 419 233 419 237 419 237 420 233 420 239 420 75 421 87 421 79 421 79 422 87 422 81 422 81 423 87 423 83 423 83 424 87 424 85 424 231 425 229 425 233 425 75 426 88 426 87 426 233 427 227 427 239 427 229 428 227 428 233 428 247 429 91 429 75 429 75 430 91 430 88 430 239 431 225 431 247 431 227 432 225 432 239 432 225 433 223 433 247 433 93 434 97 434 95 434 217 435 215 435 219 435 219 436 215 436 221 436 221 437 215 437 223 437 247 438 103 438 91 438 91 439 103 439 93 439 97 440 103 440 99 440 99 441 103 441 101 441 93 442 103 442 97 442 211 443 208 443 213 443 213 444 207 444 215 444 208 445 207 445 213 445 103 446 111 446 105 446 105 447 111 447 107 447 107 448 111 448 109 448 204 449 203 449 207 449 111 450 115 450 113 450 103 451 115 451 111 451 201 452 199 452 203 452 203 453 199 453 207 453 223 454 119 454 247 454 247 455 119 455 103 455 115 456 119 456 117 456 215 457 119 457 223 457 103 458 119 458 115 458 199 459 197 459 207 459 207 460 197 460 215 460 119 461 123 461 121 461 119 462 125 462 123 462 197 463 189 463 215 463 191 464 189 464 193 464 193 465 189 465 195 465 195 466 189 466 197 466 133 467 137 467 135 467 181 468 179 468 183 468 183 469 179 469 185 469 185 470 179 470 186 470 133 471 139 471 137 471 131 472 139 472 133 472 179 473 177 473 186 473 186 474 177 474 189 474 131 475 143 475 139 475 139 476 143 476 140 476 175 477 173 477 177 477 173 478 171 478 177 478 131 479 147 479 143 479 129 480 147 480 131 480 143 481 147 481 145 481 119 482 149 482 125 482 129 483 149 483 147 483 125 484 149 484 127 484 127 485 149 485 129 485 177 486 167 486 189 486 189 487 167 487 215 487 171 488 167 488 177 488 169 489 167 489 171 489 215 490 162 490 119 490 119 491 162 491 149 491 167 492 162 492 215 492 165 493 162 493 167 493 149 494 155 494 151 494 151 495 155 495 153 495 149 496 157 496 155 496 162 497 159 497 149 497 149 498 159 498 157 498 161 499 159 499 162 499</p>
        </triangles>
      </mesh>
    </geometry>
  </library_geometries>
  <library_materials>
    <material id="mat_Solid037" name="Solid037">
      <instance_effect url="#effect_Solid037"/>
    </material>
  </library_materials>
  <library_visual_scenes>
    <visual_scene id="scene">
      <node id="node0" name="node0">
        <instance_geometry url="#geometry0">
          <bind_material>
            <technique_common>
              <instance_material symbol="ref_Solid037" target="#mat_Solid037"/>
            </technique_common>
          </bind_material>
        </instance_geometry>
      </node>
    </visual_scene>
  </library_visual_scenes>
  <scene>
    <instance_visual_scene url="#scene"/>
  </scene>
</COLLADA>
