<COLLADA xmlns="http://www.collada.org/2005/11/COLLADASchema" version="1.4.1">
  <asset>
    <contributor/>
    <created>2026-05-13T13:14:54.779498</created>
    <modified>2026-05-13T13:14:54.779501</modified>
    <unit name="meter" meter="1.0"/>
    <up_axis>Z_UP</up_axis>
  </asset>
  <library_effects>
    <effect id="effect_Solid034" name="effect_Solid034">
      <profile_COMMON>
        <technique sid="common">
          <phong>
            <emission>
              <color>0.0 0.0 0.0 1.0</color>
            </emission>
            <ambient>
              <color>0.0 0.0 0.0 1.0</color>
            </ambient>
            <diffuse>
              <color>0.09803921729326248 0.09803921729326248 0.09803921729326248 1.0</color>
            </diffuse>
            <specular>
              <color>1 1 1 1.0</color>
            </specular>
            <shininess>
              <float>0.0</float>
            </shininess>
            <reflective>
              <color>0.0 0.0 0.0 1.0</color>
            </reflective>
            <reflectivity>
              <float>0.0</float>
            </reflectivity>
            <transparent>
              <color>0.0 0.0 0.0 1.0</color>
            </transparent>
            <transparency>
              <float>1.0</float>
            </transparency>
          </phong>
        </technique>
        <extra>
          <technique profile="GOOGLEEARTH">
            <double_sided>0</double_sided>
          </technique>
        </extra>
      </profile_COMMON>
    </effect>
  </library_effects>
  <library_geometries>
    <geometry id="geometry0" name="20021-005_arm v1:1">
      <mesh>
        <source id="cubeverts-array0">
          <float_array count="1512" id="cubeverts-array0-array">-0.0068 -1e-18 0 -0.0068 -1e-18 0.275 -0.006791547 -0.000338952 0 -0.006791547 -0.000338952 0.275 -0.006766209 -0.0006770614 0 -0.006766209 -0.0006770614 0.275 -0.00672405 -0.001013487 0 -0.00672405 -0.001013487 0.275 -0.006665173 -0.001347394 0.275 -0.006665173 -0.001347394 0 -0.006589725 -0.00167795 0.275 -0.006589725 -0.00167795 0 -0.006497895 -0.002004335 0.275 -0.006497895 -0.002004335 0 -0.00638991 -0.002325737 0 -0.00638991 -0.002325737 0.275 -0.006266038 -0.002641357 0 -0.006266038 -0.002641357 0.275 -0.006126588 -0.002950409 0 -0.006126588 -0.002950409 0.275 -0.005971907 -0.003252127 0 -0.005971907 -0.003252127 0.275 -0.005802378 -0.003545759 0.275 -0.005802378 -0.003545759 0 -0.005618423 -0.003830576 0.275 -0.005618423 -0.003830576 0 -0.005420501 -0.00410587 0.275 -0.005420501 -0.00410587 0 -0.005209102 -0.004370956 0 -0.005209102 -0.004370956 0.275 -0.004984753 -0.004625175 0.275 -0.004984753 -0.004625175 0 -0.00474801 -0.004867895 0.275 -0.00474801 -0.004867895 0 -0.004499464 -0.005098512 0 -0.004499464 -0.005098512 0.275 -0.004239731 -0.005316454 0 -0.004239731 -0.005316454 0.275 -0.003969457 -0.005521178 0.275 -0.003969457 -0.005521178 0 -0.003689315 -0.005712176 0.275 -0.003689315 -0.005712176 0 -0.0034 -0.005888973 0.275 -0.0034 -0.005888973 0 -0.003102232 -0.006051128 0.275 -0.003102232 -0.006051128 0 -0.002796752 -0.00619824 0.275 -0.002796752 -0.00619824 0 -0.002484319 -0.006329941 0.275 -0.002484319 -0.006329941 0 -0.002165709 -0.006445906 0.275 -0.002165709 -0.006445906 0 -0.001841715 -0.006545845 0.275 -0.001841715 -0.006545845 0 -0.001513142 -0.00662951 0.275 -0.001513142 -0.00662951 0 -0.001180808 -0.006696693 0.275 -0.001180808 -0.006696693 0 -0.0008455372 -0.006747227 0.275 -0.0008455372 -0.006747227 0 -0.0005081646 -0.006780986 0.275 -0.0005081646 -0.006780986 0 -0.0001695287 -0.006797886 0 -0.0001695287 -0.006797886 0.275 0.0001695287 -0.006797886 0.275 0.0001695287 -0.006797886 0 0.0005081646 -0.006780986 0.275 0.0005081646 -0.006780986 0 0.0008455372 -0.006747227 0.275 0.0008455372 -0.006747227 0 0.001180808 -0.006696693 0.275 0.001180808 -0.006696693 0 0.001513142 -0.00662951 0.275 0.001513142 -0.00662951 0 0.001841715 -0.006545845 0.275 0.001841715 -0.006545845 0 0.002165709 -0.006445906 0.275 0.002165709 -0.006445906 0 0.002484319 -0.006329941 0.275 0.002484319 -0.006329941 0 0.002796752 -0.00619824 0.275 0.002796752 -0.00619824 0 0.003102232 -0.006051128 0.275 0.003102232 -0.006051128 0 0.0034 -0.005888973 0.275 0.0034 -0.005888973 0 0.003689315 -0.005712176 0.275 0.003689315 -0.005712176 0 0.003969457 -0.005521178 0.275 0.003969457 -0.005521178 0 0.004239731 -0.005316454 0 0.004239731 -0.005316454 0.275 0.004499464 -0.005098512 0.275 0.004499464 -0.005098512 0 0.00474801 -0.004867895 0.275 0.00474801 -0.004867895 0 0.004984753 -0.004625175 0.275 0.004984753 -0.004625175 0 0.005209102 -0.004370956 0 0.005209102 -0.004370956 0.275 0.005420501 -0.00410587 0.275 0.005420501 -0.00410587 0 0.005618423 -0.003830576 0.275 0.005618423 -0.003830576 0 0.005802378 -0.003545759 0.275 0.005802378 -0.003545759 0 0.005971907 -0.003252127 0.275 0.005971907 -0.003252127 0 0.006126588 -0.002950409 0.275 0.006126588 -0.002950409 0 0.006266038 -0.002641357 0.275 0.006266038 -0.002641357 0 0.00638991 -0.002325737 0.275 0.00638991 -0.002325737 0 0.006497895 -0.002004335 0.275 0.006497895 -0.002004335 0 0.006589725 -0.00167795 0.275 0.006589725 -0.00167795 0 0.006665173 -0.001347394 0.275 0.006665173 -0.001347394 0 0.00672405 -0.001013487 0.275 0.00672405 -0.001013487 0 0.006766209 -0.0006770614 0.275 0.006766209 -0.0006770614 0 0.006791547 -0.000338952 0.275 0.006791547 -0.000338952 0 0.0068 -8.288907e-17 0.275 0.0068 -8.288907e-17 0 0.006791547 0.000338952 0 0.006791547 0.000338952 0.275 0.006766209 0.0006770614 0.275 0.006766209 0.0006770614 0 0.00672405 0.001013487 0.275 0.00672405 0.001013487 0 0.006665173 0.001347394 0.275 0.006665173 0.001347394 0 0.006589725 0.00167795 0.275 0.006589725 0.00167795 0 0.006497895 0.002004335 0.275 0.006497895 0.002004335 0 0.00638991 0.002325737 0 0.00638991 0.002325737 0.275 0.006266038 0.002641357 0.275 0.006266038 0.002641357 0 0.006126588 0.002950409 0.275 0.006126588 0.002950409 0 0.005971907 0.003252127 0.275 0.005971907 0.003252127 0 0.005802378 0.003545759 0.275 0.005802378 0.003545759 0 0.005618423 0.003830576 0 0.005618423 0.003830576 0.275 0.005420501 0.00410587 0 0.005420501 0.00410587 0.275 0.005209102 0.004370956 0.275 0.005209102 0.004370956 0 0.004984753 0.004625175 0.275 0.004984753 0.004625175 0 0.00474801 0.004867895 0 0.00474801 0.004867895 0.275 0.004499464 0.005098512 0.275 0.004499464 0.005098512 0 0.004239731 0.005316454 0.275 0.004239731 0.005316454 0 0.003969457 0.005521178 0 0.003969457 0.005521178 0.275 0.003689315 0.005712176 0 0.003689315 0.005712176 0.275 0.0034 0.005888973 0.275 0.0034 0.005888973 0 0.003102232 0.006051128 0 0.003102232 0.006051128 0.275 0.002796752 0.00619824 0 0.002796752 0.00619824 0.275 0.002484319 0.006329941 0 0.002484319 0.006329941 0.275 0.002165709 0.006445906 0.275 0.002165709 0.006445906 0 0.001841715 0.006545845 0 0.001841715 0.006545845 0.275 0.001513142 0.00662951 0.275 0.001513142 0.00662951 0 0.001180808 0.006696693 0.275 0.001180808 0.006696693 0 0.0008455372 0.006747227 0.275 0.0008455372 0.006747227 0 0.0005081646 0.006780986 0 0.0005081646 0.006780986 0.275 0.0001695287 0.006797886 0.275 0.0001695287 0.006797886 0 -0.0001695287 0.006797886 0.275 -0.0001695287 0.006797886 0 -0.0005081646 0.006780986 0.275 -0.0005081646 0.006780986 0 -0.0008455372 0.006747227 0.275 -0.0008455372 0.006747227 0 -0.001180808 0.006696693 0.275 -0.001180808 0.006696693 0 -0.001513142 0.00662951 0.275 -0.001513142 0.00662951 0 -0.001841715 0.006545845 0.275 -0.001841715 0.006545845 0 -0.002165709 0.006445906 0.275 -0.002165709 0.006445906 0 -0.002484319 0.006329941 0.275 -0.002484319 0.006329941 0 -0.002796752 0.00619824 0.275 -0.002796752 0.00619824 0 -0.003102232 0.006051128 0.275 -0.003102232 0.006051128 0 -0.0034 0.005888973 0.275 -0.0034 0.005888973 0 -0.003689315 0.005712176 0.275 -0.003689315 0.005712176 0 -0.003969457 0.005521178 0 -0.003969457 0.005521178 0.275 -0.004239731 0.005316454 0 -0.004239731 0.005316454 0.275 -0.004499464 0.005098512 0 -0.004499464 0.005098512 0.275 -0.00474801 0.004867895 0 -0.00474801 0.004867895 0.275 -0.004984753 0.004625175 0 -0.004984753 0.004625175 0.275 -0.005209102 0.004370956 0 -0.005209102 0.004370956 0.275 -0.005420501 0.00410587 0.275 -0.005420501 0.00410587 0 -0.005618423 0.003830576 0.275 -0.005618423 0.003830576 0 -0.005802378 0.003545759 0 -0.005802378 0.003545759 0.275 -0.005971907 0.003252127 0 -0.005971907 0.003252127 0.275 -0.006126588 0.002950409 0 -0.006126588 0.002950409 0.275 -0.006266038 0.002641357 0 -0.006266038 0.002641357 0.275 -0.00638991 0.002325737 0 -0.00638991 0.002325737 0.275 -0.006497895 0.002004335 0.275 -0.006497895 0.002004335 0 -0.006589725 0.00167795 0 -0.006589725 0.00167795 0.275 -0.006665173 0.001347394 0 -0.006665173 0.001347394 0.275 -0.00672405 0.001013487 0 -0.00672405 0.001013487 0.275 -0.006766209 0.0006770614 0 -0.006766209 0.0006770614 0.275 -0.006791547 0.000338952 0 -0.006791547 0.000338952 0.275 -0.008 -1e-18 0.275 -0.008 -1e-18 0 -0.007990056 -0.0003987671 0 -0.007990056 -0.0003987671 0.275 -0.007960246 -0.0007965428 0.275 -0.007960246 -0.0007965428 0 -0.007910646 -0.001192338 0.275 -0.007910646 -0.001192338 0 -0.00784138 -0.001585169 0.275 -0.00784138 -0.001585169 0 -0.007752618 -0.001974059 0.275 -0.007752618 -0.001974059 0 -0.007644582 -0.002358041 0.275 -0.007644582 -0.002358041 0 -0.007517541 -0.002736161 0.275 -0.007517541 -0.002736161 0 -0.007371809 -0.003107478 0 -0.007371809 -0.003107478 0.275 -0.007207751 -0.00347107 0.275 -0.007207751 -0.00347107 0 -0.007025773 -0.003826032 0.275 -0.007025773 -0.003826032 0 -0.006826327 -0.004171482 0.275 -0.006826327 -0.004171482 0 -0.00660991 -0.00450656 0 -0.00660991 -0.00450656 0.275 -0.00637706 -0.004830435 0.275 -0.00637706 -0.004830435 0 -0.006128356 -0.005142301 0.275 -0.006128356 -0.005142301 0 -0.005864415 -0.005441382 0 -0.005864415 -0.005441382 0.275 -0.005585895 -0.005726935 0.275 -0.005585895 -0.005726935 0 -0.005293487 -0.00599825 0.275 -0.005293487 -0.00599825 0 -0.004987918 -0.006254652 0.275 -0.004987918 -0.006254652 0 -0.00466995 -0.006495504 0.275 -0.00466995 -0.006495504 0 -0.00434037 -0.006720207 0 -0.00434037 -0.006720207 0.275 -0.004 -0.006928203 0.275 -0.004 -0.006928203 0 -0.003649685 -0.007118975 0.275 -0.003649685 -0.007118975 0 -0.003290297 -0.007292047 0.275 -0.003290297 -0.007292047 0 -0.002922728 -0.00744699 0 -0.002922728 -0.00744699 0.275 -0.002547893 -0.007583419 0.275 -0.002547893 -0.007583419 0 -0.002166724 -0.007700994 0.275 -0.002166724 -0.007700994 0 -0.001780167 -0.007799423 0.275 -0.001780167 -0.007799423 0 -0.001389185 -0.007878462 0.275 -0.001389185 -0.007878462 0 -0.0009947497 -0.007937913 0 -0.0009947497 -0.007937913 0.275 -0.0005978407 -0.007977631 0.275 -0.0005978407 -0.007977631 0 -0.0001994455 -0.007997513 0 -0.0001994455 -0.007997513 0.275 0.0001994455 -0.007997513 0.275 0.0001994455 -0.007997513 0 0.0005978407 -0.007977631 0.275 0.0005978407 -0.007977631 0 0.0009947497 -0.007937913 0.275 0.0009947497 -0.007937913 0 0.001389185 -0.007878462 0.275 0.001389185 -0.007878462 0 0.001780167 -0.007799423 0.275 0.001780167 -0.007799423 0 0.002166724 -0.007700994 0.275 0.002166724 -0.007700994 0 0.002547893 -0.007583419 0.275 0.002547893 -0.007583419 0 0.002922728 -0.00744699 0 0.002922728 -0.00744699 0.275 0.003290297 -0.007292047 0.275 0.003290297 -0.007292047 0 0.003649685 -0.007118975 0.275 0.003649685 -0.007118975 0 0.004 -0.006928203 0.275 0.004 -0.006928203 0 0.00434037 -0.006720207 0 0.00434037 -0.006720207 0.275 0.00466995 -0.006495504 0 0.00466995 -0.006495504 0.275 0.004987918 -0.006254652 0.275 0.004987918 -0.006254652 0 0.005293487 -0.00599825 0.275 0.005293487 -0.00599825 0 0.005585895 -0.005726935 0.275 0.005585895 -0.005726935 0 0.005864415 -0.005441382 0.275 0.005864415 -0.005441382 0 0.006128356 -0.005142301 0.275 0.006128356 -0.005142301 0 0.00637706 -0.004830435 0.275 0.00637706 -0.004830435 0 0.00660991 -0.00450656 0.275 0.00660991 -0.00450656 0 0.006826327 -0.004171482 0.275 0.006826327 -0.004171482 0 0.007025773 -0.003826032 0.275 0.007025773 -0.003826032 0 0.007207751 -0.00347107 0.275 0.007207751 -0.00347107 0 0.007371809 -0.003107478 0.275 0.007371809 -0.003107478 0 0.007517541 -0.002736161 0.275 0.007517541 -0.002736161 0 0.007644582 -0.002358041 0.275 0.007644582 -0.002358041 0 0.007752618 -0.001974059 0.275 0.007752618 -0.001974059 0 0.00784138 -0.001585169 0.275 0.00784138 -0.001585169 0 0.007910646 -0.001192338 0.275 0.007910646 -0.001192338 0 0.007960246 -0.0007965428 0.275 0.007960246 -0.0007965428 0 0.007990056 -0.0003987671 0 0.007990056 -0.0003987671 0.275 0.008 9.751655e-17 0.275 0.008 9.751655e-17 0 0.007990056 0.0003987671 0.275 0.007990056 0.0003987671 0 0.007960246 0.0007965428 0.275 0.007960246 0.0007965428 0 0.007910646 0.001192338 0.275 0.007910646 0.001192338 0 0.00784138 0.001585169 0.275 0.00784138 0.001585169 0 0.007752618 0.001974059 0 0.007752618 0.001974059 0.275 0.007644582 0.002358041 0.275 0.007644582 0.002358041 0 0.007517541 0.002736161 0.275 0.007517541 0.002736161 0 0.007371809 0.003107478 0 0.007371809 0.003107478 0.275 0.007207751 0.00347107 0.275 0.007207751 0.00347107 0 0.007025773 0.003826032 0.275 0.007025773 0.003826032 0 0.006826327 0.004171482 0.275 0.006826327 0.004171482 0 0.00660991 0.00450656 0.275 0.00660991 0.00450656 0 0.00637706 0.004830435 0.275 0.00637706 0.004830435 0 0.006128356 0.005142301 0 0.006128356 0.005142301 0.275 0.005864415 0.005441382 0.275 0.005864415 0.005441382 0 0.005585895 0.005726935 0.275 0.005585895 0.005726935 0 0.005293487 0.00599825 0.275 0.005293487 0.00599825 0 0.004987918 0.006254652 0 0.004987918 0.006254652 0.275 0.00466995 0.006495504 0.275 0.00466995 0.006495504 0 0.00434037 0.006720207 0 0.00434037 0.006720207 0.275 0.004 0.006928203 0.275 0.004 0.006928203 0 0.003649685 0.007118975 0 0.003649685 0.007118975 0.275 0.003290297 0.007292047 0 0.003290297 0.007292047 0.275 0.002922728 0.00744699 0 0.002922728 0.00744699 0.275 0.002547893 0.007583419 0.275 0.002547893 0.007583419 0 0.002166724 0.007700994 0.275 0.002166724 0.007700994 0 0.001780167 0.007799423 0.275 0.001780167 0.007799423 0 0.001389185 0.007878462 0.275 0.001389185 0.007878462 0 0.0009947497 0.007937913 0.275 0.0009947497 0.007937913 0 0.0005978407 0.007977631 0.275 0.0005978407 0.007977631 0 0.0001994455 0.007997513 0.275 0.0001994455 0.007997513 0 -0.0001994455 0.007997513 0.275 -0.0001994455 0.007997513 0 -0.0005978407 0.007977631 0 -0.0005978407 0.007977631 0.275 -0.0009947497 0.007937913 0.275 -0.0009947497 0.007937913 0 -0.001389185 0.007878462 0.275 -0.001389185 0.007878462 0 -0.001780167 0.007799423 0.275 -0.001780167 0.007799423 0 -0.002166724 0.007700994 0 -0.002166724 0.007700994 0.275 -0.002547893 0.007583419 0.275 -0.002547893 0.007583419 0 -0.002922728 0.00744699 0.275 -0.002922728 0.00744699 0 -0.003290297 0.007292047 0.275 -0.003290297 0.007292047 0 -0.003649685 0.007118975 0.275 -0.003649685 0.007118975 0 -0.004 0.006928203 0.275 -0.004 0.006928203 0 -0.00434037 0.006720207 0 -0.00434037 0.006720207 0.275 -0.00466995 0.006495504 0.275 -0.00466995 0.006495504 0 -0.004987918 0.006254652 0.275 -0.004987918 0.006254652 0 -0.005293487 0.00599825 0.275 -0.005293487 0.00599825 0 -0.005585895 0.005726935 0.275 -0.005585895 0.005726935 0 -0.005864415 0.005441382 0 -0.005864415 0.005441382 0.275 -0.006128356 0.005142301 0.275 -0.006128356 0.005142301 0 -0.00637706 0.004830435 0.275 -0.00637706 0.004830435 0 -0.00660991 0.00450656 0.275 -0.00660991 0.00450656 0 -0.006826327 0.004171482 0 -0.006826327 0.004171482 0.275 -0.007025773 0.003826032 0.275 -0.007025773 0.003826032 0 -0.007207751 0.00347107 0 -0.007207751 0.00347107 0.275 -0.007371809 0.003107478 0.275 -0.007371809 0.003107478 0 -0.007517541 0.002736161 0.275 -0.007517541 0.002736161 0 -0.007644582 0.002358041 0 -0.007644582 0.002358041 0.275 -0.007752618 0.001974059 0.275 -0.007752618 0.001974059 0 -0.00784138 0.001585169 0 -0.00784138 0.001585169 0.275 -0.007910646 0.001192338 0.275 -0.007910646 0.001192338 0 -0.007960246 0.0007965428 0 -0.007960246 0.0007965428 0.275 -0.007990056 0.0003987671 0.275 -0.007990056 0.0003987671 0</float_array>
          <technique_common>
            <accessor count="504" source="#cubeverts-array0-array" stride="3">
              <param type="float" name="X"/>
              <param type="float" name="Y"/>
              <param type="float" name="Z"/>
            </accessor>
          </technique_common>
        </source>
        <source id="cubenormals-array0">
          <float_array count="3024" id="cubenormals-array0-array">0.9996892 0.02493056 -0 0.9996892 0.02493056 0 0.9922392 0.1243434 -0 0.9972037 0.07473121 0 0.9972037 0.07473121 0 0.9922392 0.1243434 0 0.9848078 0.1736477 0 0.9848078 0.1736477 0 0.9749278 0.2225215 0 0.9749278 0.2225215 0 0.9626244 0.2708399 0 0.9626244 0.2708399 0 0.930874 0.3653403 -0 0.9479271 0.3184872 0 0.9479271 0.3184872 0 0.930874 0.3653403 0 0.8898718 0.4562107 -0 0.9115056 0.4112875 0 0.9115056 0.4112875 0 0.8898718 0.4562107 0 0.8660256 0.4999996 0 0.8660256 0.4999996 0 0.8400254 0.5425471 0 0.8400254 0.5425471 0 0.8119383 0.5837432 0 0.7818316 0.6234896 -0 0.8119383 0.5837432 0 0.7818316 0.6234896 0 0.7497808 0.6616863 0 0.7497808 0.6616863 0 0.7158669 0.6982368 0 0.7158669 0.6982368 0 0.6427878 0.7660443 -0 0.6801727 0.7330518 0 0.6801727 0.7330518 0 0.6427878 0.7660443 0 0.6038039 0.7971328 0 0.6038039 0.7971328 0 0.5633206 0.8262383 0 0.5633206 0.8262383 0 0.5214353 0.8532909 0 0.5214353 0.8532909 0 0.478254 0.8782216 0 0.478254 0.8782216 0 0.4338835 0.900969 0 0.4338835 0.900969 0 0.3884343 0.9214764 0 0.3884343 0.9214764 0 0.3420213 0.9396922 0 0.3420213 0.9396922 0 0.294755 0.9555728 0 0.294755 0.9555728 0 0.2467573 0.9690773 0 0.2467573 0.9690773 0 0.1981464 0.9801724 0 0.1981464 0.9801724 0 0.149042 0.9888309 0 0.149042 0.9888309 0 0.09956756 0.9950308 0 0.04984566 0.9987569 -0 0.09956756 0.9950308 0 0.04984566 0.9987569 0 -0 1 0 0 1 0 -0.04984566 0.9987569 0 -0.04984566 0.9987569 0 -0.09956756 0.9950308 0 -0.09956756 0.9950308 0 -0.149042 0.9888309 0 -0.149042 0.9888309 0 -0.1981464 0.9801724 0 -0.1981464 0.9801724 0 -0.2467573 0.9690773 0 -0.2467573 0.9690773 0 -0.294755 0.9555728 0 -0.294755 0.9555728 0 -0.3420213 0.9396922 0 -0.3420213 0.9396922 0 -0.3884343 0.9214764 0 -0.3884343 0.9214764 0 -0.4338835 0.900969 0 -0.4338835 0.900969 0 -0.478254 0.8782216 0 -0.478254 0.8782216 0 -0.5214353 0.8532909 0 -0.5214353 0.8532909 0 -0.5633206 0.8262383 0 -0.6038039 0.7971328 0 -0.5633206 0.8262383 0 -0.6038039 0.7971328 0 -0.6427878 0.7660443 0 -0.6427878 0.7660443 0 -0.6801727 0.7330518 0 -0.6801727 0.7330518 0 -0.7158669 0.6982368 0 -0.7497808 0.6616863 0 -0.7158669 0.6982368 0 -0.7497808 0.6616863 0 -0.7818316 0.6234896 0 -0.7818316 0.6234896 0 -0.8119383 0.5837432 0 -0.8119383 0.5837432 0 -0.8400254 0.5425471 0 -0.8400254 0.5425471 0 -0.8660256 0.4999996 0 -0.8660256 0.4999996 0 -0.8898718 0.4562107 0 -0.8898718 0.4562107 0 -0.9115056 0.4112875 0 -0.9115056 0.4112875 0 -0.930874 0.3653403 0 -0.930874 0.3653403 0 -0.9479271 0.3184872 0 -0.9479271 0.3184872 0 -0.9626244 0.2708399 0 -0.9626244 0.2708399 0 -0.9749278 0.2225215 0 -0.9749278 0.2225215 0 -0.9848078 0.1736477 0 -0.9848078 0.1736477 0 -0.9922392 0.1243434 0 -0.9922392 0.1243434 0 -0.9972037 0.07473121 0 -0.9972037 0.07473121 0 -0.9996892 0.02493056 0 -0.9996892 -0.02493056 0 -0.9996892 0.02493056 0 -0.9996892 -0.02493056 0 -0.9972037 -0.07473121 0 -0.9972037 -0.07473121 -0 -0.9922392 -0.1243434 -0 -0.9922392 -0.1243434 0 -0.9848078 -0.1736477 -0 -0.9848078 -0.1736477 0 -0.9749278 -0.2225215 -0 -0.9749278 -0.2225215 0 -0.9626244 -0.2708399 -0 -0.9479271 -0.3184872 0 -0.9626244 -0.2708399 0 -0.9479271 -0.3184872 0 -0.930874 -0.3653403 -0 -0.930874 -0.3653403 0 -0.9115056 -0.4112875 -0 -0.9115056 -0.4112875 0 -0.8898718 -0.4562107 -0 -0.8898718 -0.4562107 0 -0.8660256 -0.4999996 -0 -0.8660256 -0.4999996 0 -0.8119383 -0.5837432 0 -0.8400254 -0.5425471 0 -0.8400254 -0.5425471 -0 -0.8119383 -0.5837432 0 -0.7818316 -0.6234896 0 -0.7818316 -0.6234896 -0 -0.7497808 -0.6616863 -0 -0.7158669 -0.6982368 0 -0.7497808 -0.6616863 0 -0.7158669 -0.6982368 0 -0.6801727 -0.7330518 0 -0.6801727 -0.7330518 -0 -0.6427878 -0.7660443 0 -0.6427878 -0.7660443 -0 -0.5633206 -0.8262383 0 -0.6038039 -0.7971328 0 -0.6038039 -0.7971328 -0 -0.5633206 -0.8262383 0 -0.5214353 -0.8532909 0 -0.5214353 -0.8532909 -0 -0.4338835 -0.900969 0 -0.478254 -0.8782216 0 -0.478254 -0.8782216 -0 -0.3884343 -0.9214764 0 -0.4338835 -0.900969 0 -0.3884343 -0.9214764 0 -0.3420213 -0.9396922 -0 -0.294755 -0.9555728 0 -0.3420213 -0.9396922 0 -0.294755 -0.9555728 0 -0.2467573 -0.9690773 0 -0.2467573 -0.9690773 -0 -0.1981464 -0.9801724 -0 -0.1981464 -0.9801724 0 -0.149042 -0.9888309 -0 -0.09956756 -0.9950308 0 -0.149042 -0.9888309 0 -0.09956756 -0.9950308 0 -0.04984566 -0.9987569 -0 -0.04984566 -0.9987569 0 0 -1 0 -0 -1 -0 0.04984566 -0.9987569 0 0.04984566 -0.9987569 0 0.09956756 -0.9950308 0 0.09956756 -0.9950308 0 0.149042 -0.9888309 0 0.149042 -0.9888309 0 0.1981464 -0.9801724 0 0.1981464 -0.9801724 0 0.2467573 -0.9690773 0 0.2467573 -0.9690773 0 0.294755 -0.9555728 0 0.294755 -0.9555728 0 0.3420213 -0.9396922 0 0.3420213 -0.9396922 0 0.3884343 -0.9214764 0 0.3884343 -0.9214764 0 0.4338835 -0.900969 0 0.4338835 -0.900969 0 0.478254 -0.8782216 0 0.478254 -0.8782216 0 0.5214353 -0.8532909 0 0.5214353 -0.8532909 0 0.6038039 -0.7971328 0 0.5633206 -0.8262383 0 0.5633206 -0.8262383 0 0.6038039 -0.7971328 0 0.6801727 -0.7330518 0 0.6427878 -0.7660443 0 0.6427878 -0.7660443 0 0.6801727 -0.7330518 0 0.7497808 -0.6616863 0 0.7158669 -0.6982368 0 0.7158669 -0.6982368 0 0.7497808 -0.6616863 0 0.7818316 -0.6234896 0 0.7818316 -0.6234896 0 0.8119383 -0.5837432 0 0.8400254 -0.5425471 0 0.8119383 -0.5837432 0 0.8400254 -0.5425471 0 0.8898718 -0.4562107 0 0.8660256 -0.4999996 0 0.8660256 -0.4999996 0 0.8898718 -0.4562107 0 0.930874 -0.3653403 0 0.9115056 -0.4112875 0 0.9115056 -0.4112875 0 0.930874 -0.3653403 0 0.9479271 -0.3184872 0 0.9479271 -0.3184872 0 0.9749278 -0.2225215 0 0.9626244 -0.2708399 0 0.9626244 -0.2708399 0 0.9848078 -0.1736477 0 0.9749278 -0.2225215 0 0.9848078 -0.1736477 0 0.9972037 -0.07473121 0 0.9922392 -0.1243434 0 0.9922392 -0.1243434 0 0.9996892 -0.02493056 0 0.9972037 -0.07473121 0 0.9996892 -0.02493056 0 -0.9996892 -0.02493021 -0 -0.9996892 -0.02493021 -0 -0.9972037 -0.07473086 -0 -0.9972037 -0.07473086 0 -0.9922392 -0.1243438 -0 -0.9922392 -0.1243438 0 -0.984808 -0.1736472 -0 -0.984808 -0.1736472 0 -0.9749278 -0.2225214 -0 -0.9749278 -0.2225214 0 -0.9626241 -0.270841 -0 -0.9626241 -0.270841 0 -0.9479275 -0.3184862 -0 -0.9308736 -0.3653415 -0 -0.9479275 -0.3184862 0 -0.9308736 -0.3653415 -0 -0.9115058 -0.4112871 -0 -0.9115058 -0.4112871 0 -0.8898721 -0.4562103 -0 -0.8898721 -0.4562103 0 -0.8660252 -0.5000005 0 -0.8660252 -0.5000005 -0 -0.8400259 -0.5425464 -0 -0.8400259 -0.5425464 -0 -0.8119382 -0.5837434 0 -0.8119382 -0.5837434 -0 -0.7818318 -0.6234894 0 -0.7818318 -0.6234894 -0 -0.7497813 -0.6616858 -0 -0.7497813 -0.6616858 -0 -0.7158667 -0.6982369 0 -0.7158667 -0.6982369 -0 -0.6801722 -0.7330523 0 -0.6801722 -0.7330523 -0 -0.6427881 -0.766044 0 -0.6427881 -0.766044 -0 -0.6038042 -0.7971327 0 -0.6038042 -0.7971327 -0 -0.5633199 -0.8262389 -0 -0.5633199 -0.8262389 -0 -0.5214352 -0.8532909 0 -0.5214352 -0.8532909 -0 -0.4782545 -0.8782212 0 -0.4782545 -0.8782212 -0 -0.4338838 -0.9009688 -0 -0.4338838 -0.9009688 0 -0.3884345 -0.9214763 -0 -0.3884345 -0.9214763 -0 -0.3420202 -0.9396926 -0 -0.3420202 -0.9396926 0 -0.294755 -0.9555729 -0 -0.294755 -0.9555729 0 -0.2467571 -0.9690773 -0 -0.2467571 -0.9690773 0 -0.1981459 -0.9801726 -0 -0.1490421 -0.9888308 -0 -0.1981459 -0.9801726 0 -0.1490421 -0.9888308 -0 -0.09956902 -0.9950306 -0 -0.04984489 -0.998757 -0 -0.09956902 -0.9950306 0 -0.04984489 -0.998757 -0 0 -1 -0 -0 -1 0 0.04984489 -0.998757 0 0.04984489 -0.998757 0 0.09956902 -0.9950306 0 0.09956902 -0.9950306 0 0.1490421 -0.9888308 0 0.1490421 -0.9888308 0 0.1981459 -0.9801726 0 0.1981459 -0.9801726 0 0.2467571 -0.9690773 0 0.2467571 -0.9690773 0 0.294755 -0.9555729 0 0.294755 -0.9555729 0 0.3420202 -0.9396926 0 0.3420202 -0.9396926 0 0.3884345 -0.9214763 0 0.3884345 -0.9214763 0 0.4338838 -0.9009688 0 0.4338838 -0.9009688 0 0.4782545 -0.8782212 0 0.4782545 -0.8782212 0 0.5214352 -0.8532909 0 0.5214352 -0.8532909 0 0.5633199 -0.8262389 0 0.5633199 -0.8262389 0 0.6038042 -0.7971327 0 0.6038042 -0.7971327 0 0.6427881 -0.766044 0 0.6427881 -0.766044 0 0.6801722 -0.7330523 0 0.6801722 -0.7330523 0 0.7158667 -0.6982369 0 0.7158667 -0.6982369 0 0.7497813 -0.6616858 0 0.7497813 -0.6616858 0 0.7818318 -0.6234894 0 0.7818318 -0.6234894 0 0.8119382 -0.5837434 0 0.8119382 -0.5837434 0 0.8400259 -0.5425464 0 0.8400259 -0.5425464 0 0.8660252 -0.5000005 0 0.8660252 -0.5000005 0 0.8898721 -0.4562103 0 0.8898721 -0.4562103 0 0.9115058 -0.4112871 0 0.9115058 -0.4112871 0 0.9308736 -0.3653415 0 0.9308736 -0.3653415 0 0.9479275 -0.3184862 0 0.9479275 -0.3184862 0 0.9626241 -0.270841 0 0.9626241 -0.270841 0 0.9749278 -0.2225214 0 0.9749278 -0.2225214 0 0.984808 -0.1736472 0 0.984808 -0.1736472 0 0.9922392 -0.1243438 0 0.9972037 -0.07473086 0 0.9922392 -0.1243438 0 0.9972037 -0.07473086 0 0.9996892 -0.02493021 0 0.9996892 -0.02493021 0 0.9996892 0.02493021 0 0.9996892 0.02493021 0 0.9972037 0.07473086 0 0.9972037 0.07473086 0 0.9922392 0.1243438 0 0.9922392 0.1243438 0 0.984808 0.1736472 0 0.984808 0.1736472 0 0.9749278 0.2225214 0 0.9749278 0.2225214 0 0.9626241 0.270841 0 0.9626241 0.270841 0 0.9479275 0.3184862 0 0.9479275 0.3184862 0 0.9308736 0.3653415 0 0.9308736 0.3653415 0 0.9115058 0.4112871 0 0.9115058 0.4112871 0 0.8898721 0.4562103 0 0.8898721 0.4562103 0 0.8660252 0.5000005 0 0.8660252 0.5000005 0 0.8400259 0.5425464 0 0.8400259 0.5425464 0 0.8119382 0.5837434 0 0.7818318 0.6234894 0 0.8119382 0.5837434 0 0.7818318 0.6234894 0 0.7497813 0.6616858 0 0.7497813 0.6616858 0 0.7158667 0.6982369 0 0.7158667 0.6982369 0 0.6801722 0.7330523 0 0.6427881 0.766044 0 0.6801722 0.7330523 0 0.6427881 0.766044 0 0.6038042 0.7971327 0 0.5633199 0.8262389 0 0.6038042 0.7971327 0 0.5633199 0.8262389 0 0.5214352 0.8532909 0 0.4782545 0.8782212 0 0.5214352 0.8532909 0 0.4338838 0.9009688 0 0.4782545 0.8782212 0 0.3884345 0.9214763 0 0.4338838 0.9009688 0 0.3884345 0.9214763 0 0.3420202 0.9396926 0 0.3420202 0.9396926 0 0.294755 0.9555729 0 0.294755 0.9555729 0 0.2467571 0.9690773 0 0.2467571 0.9690773 0 0.1981459 0.9801726 0 0.1981459 0.9801726 0 0.1490421 0.9888308 0 0.1490421 0.9888308 0 0.09956902 0.9950306 0 0.09956902 0.9950306 0 0.04984489 0.998757 0 0.04984489 0.998757 0 0 1 0 -0.04984489 0.998757 0 -0 1 0 -0.04984489 0.998757 0 -0.09956902 0.9950306 0 -0.09956902 0.9950306 0 -0.1490421 0.9888308 0 -0.1490421 0.9888308 0 -0.1981459 0.9801726 0 -0.2467571 0.9690773 0 -0.1981459 0.9801726 0 -0.2467571 0.9690773 0 -0.294755 0.9555729 0 -0.294755 0.9555729 0 -0.3420202 0.9396926 0 -0.3420202 0.9396926 0 -0.3884345 0.9214763 0 -0.3884345 0.9214763 0 -0.4338838 0.9009688 0 -0.4338838 0.9009688 0 -0.4782545 0.8782212 0 -0.5214352 0.8532909 0 -0.4782545 0.8782212 0 -0.5214352 0.8532909 0 -0.5633199 0.8262389 0 -0.5633199 0.8262389 0 -0.6038042 0.7971327 0 -0.6038042 0.7971327 0 -0.6427881 0.766044 0 -0.6427881 0.766044 0 -0.6801722 0.7330523 0 -0.7158667 0.6982369 0 -0.6801722 0.7330523 0 -0.7158667 0.6982369 0 -0.7497813 0.6616858 0 -0.7497813 0.6616858 0 -0.7818318 0.6234894 0 -0.7818318 0.6234894 0 -0.8119382 0.5837434 0 -0.8119382 0.5837434 0 -0.8400259 0.5425464 0 -0.8400259 0.5425464 0 -0.8660252 0.5000005 0 -0.8660252 0.5000005 0 -0.8898721 0.4562103 0 -0.8898721 0.4562103 0 -0.9115058 0.4112871 0 -0.9115058 0.4112871 0 -0.9308736 0.3653415 0 -0.9308736 0.3653415 0 -0.9479275 0.3184862 0 -0.9479275 0.3184862 0 -0.9626241 0.270841 0 -0.9626241 0.270841 0 -0.9749278 0.2225214 0 -0.9749278 0.2225214 0 -0.984808 0.1736472 0 -0.984808 0.1736472 0 -0.9922392 0.1243438 0 -0.9922392 0.1243438 0 -0.9972037 0.07473086 0 -0.9972037 0.07473086 0 -0.9996892 0.02493021 0 -0.9996892 0.02493021 0 0 0 1 0 0 1 0 0 1 0 0 1 0 0 1 0 0 1 0 0 1 0 0 1 0 0 1 0 0 1 0 0 1 0 0 1 0 0 1 0 0 1 0 0 1 0 0 1 0 0 1 0 0 1 0 0 1 0 0 1 0 0 1 0 0 1 0 0 1 0 0 1 0 0 1 0 0 1 0 0 1 0 0 1 0 0 1 0 0 1 0 0 1 0 0 1 0 0 1 0 0 1 0 0 1 0 0 1 0 0 1 0 0 1 0 0 1 0 0 1 0 0 1 0 0 1 0 0 1 0 0 1 0 0 1 0 0 1 0 0 1 0 0 1 0 0 1 0 0 1 0 0 1 0 0 1 0 0 1 0 0 1 0 0 1 0 0 1 0 0 1 0 0 1 0 0 1 0 0 1 0 0 1 0 0 1 0 0 1 0 0 1 0 0 1 0 0 1 0 0 1 0 0 1 0 0 1 0 0 1 0 0 1 0 0 1 0 0 1 0 0 1 0 0 1 0 0 1 0 0 1 0 0 1 0 0 1 0 0 1 0 0 1 0 0 1 0 0 1 0 0 1 0 0 1 0 0 1 0 0 1 0 0 1 0 0 1 0 0 1 0 0 1 0 0 1 0 0 1 0 0 1 0 0 1 0 0 1 0 0 1 0 0 1 0 0 1 0 0 1 0 0 1 0 0 1 0 0 1 0 0 1 0 0 1 0 0 1 0 0 1 0 0 1 0 0 1 0 0 1 0 0 1 0 0 1 0 0 1 0 0 1 0 0 1 0 0 1 0 0 1 0 0 1 0 0 1 0 0 1 0 0 1 0 0 1 0 0 1 0 0 1 0 0 1 0 0 1 0 0 1 0 0 1 0 0 1 0 0 1 0 0 1 0 0 1 0 0 1 0 0 1 0 0 1 0 0 1 0 0 1 0 0 1 0 0 1 0 0 1 0 0 1 0 0 1 0 0 1 0 0 1 0 0 1 0 0 1 0 0 1 0 0 1 0 0 1 0 0 1 0 0 1 0 0 1 0 0 1 0 0 1 0 0 1 0 0 1 0 0 1 0 0 1 0 0 1 0 0 1 0 0 1 0 0 1 0 0 1 0 0 1 0 0 1 0 0 1 0 0 1 0 0 1 0 0 1 0 0 1 0 0 1 0 0 1 0 0 1 0 0 1 0 0 1 0 0 1 0 0 1 0 0 1 0 0 1 0 0 1 0 0 1 0 0 1 0 0 1 0 0 1 0 0 1 0 0 1 0 0 1 0 0 1 0 0 1 0 0 1 0 0 1 0 0 1 0 0 1 0 0 1 0 0 1 0 0 1 0 0 1 0 0 1 0 0 1 0 0 1 0 0 1 0 0 1 0 0 1 0 0 1 0 0 1 0 0 1 0 0 1 0 0 1 0 0 1 0 0 1 0 0 1 0 0 1 0 0 1 0 0 1 0 0 1 0 0 1 0 0 1 0 0 1 0 0 1 0 0 1 0 0 1 0 0 1 0 0 1 0 0 1 0 0 1 0 0 1 0 0 1 0 0 1 0 0 1 0 0 1 0 0 1 0 0 1 0 0 1 0 0 1 0 0 1 0 0 1 0 0 1 0 0 1 0 0 1 0 0 1 0 0 1 0 0 1 0 0 1 0 0 1 0 0 1 0 0 1 0 0 1 0 0 1 0 0 1 0 0 1 0 0 1 0 0 1 0 0 -1 0 0 -1 0 0 -1 0 0 -1 0 -0 -1 0 0 -1 0 0 -1 0 0 -1 0 -0 -1 0 0 -1 0 0 -1 0 0 -1 0 -0 -1 0 0 -1 0 0 -1 0 0 -1 0 -0 -1 0 0 -1 0 0 -1 0 0 -1 0 -0 -1 0 0 -1 0 0 -1 0 -0 -1 0 0 -1 0 0 -1 0 0 -1 0 0 -1 0 -0 -1 0 0 -1 0 0 -1 0 -0 -1 0 0 -1 0 0 -1 0 0 -1 0 0 -1 0 -0 -1 0 0 -1 0 0 -1 0 0 -1 0 -0 -1 0 0 -1 0 0 -1 0 -0 -1 0 0 -1 0 0 -1 0 0 -1 0 0 -1 0 -0 -1 0 0 -1 0 0 -1 0 0 -1 0 -0 -1 0 0 -1 0 0 -1 0 -0 -1 0 0 -1 0 0 -1 0 0 -1 0 0 -1 0 -0 -1 0 -0 -1 0 0 -1 0 0 -1 0 -0 -1 0 -0 -1 0 0 -1 0 0 -1 0 0 -1 0 -0 -1 0 0 -1 0 0 -1 0 0 -1 0 -0 -1 0 0 -1 0 0 -1 0 0 -1 0 -0 -1 0 0 -1 0 0 -1 0 0 -1 0 0 -1 0 -0 -1 0 0 -1 0 0 -1 0 0 -1 0 -0 -1 0 0 -1 0 0 -1 0 -0 -1 0 0 -1 0 0 -1 0 0 -1 0 -0 -1 0 0 -1 0 0 -1 0 0 -1 0 -0 -1 0 0 -1 0 0 -1 0 0 -1 0 0 -1 0 0 -1 0 0 -1 0 0 -1 0 0 -1 0 0 -1 0 0 -1 0 0 -1 0 0 -1 0 0 -1 0 0 -1 0 0 -1 0 0 -1 0 0 -1 0 0 -1 0 0 -1 0 0 -1 0 0 -1 0 0 -1 0 0 -1 0 0 -1 0 0 -1 0 0 -1 0 0 -1 0 0 -1 0 0 -1 0 0 -1 0 0 -1 0 0 -1 0 0 -1 0 0 -1 0 0 -1 0 0 -1 0 0 -1 0 0 -1 0 0 -1 0 0 -1 0 0 -1 0 0 -1 0 0 -1 0 0 -1 0 0 -1 0 0 -1 0 0 -1 0 0 -1 0 0 -1 0 0 -1 0 -0 -1 0 0 -1 0 0 -1 0 0 -1 0 -0 -1 0 0 -1 0 0 -1 0 0 -1 0 -0 -1 0 0 -1 0 0 -1 0 0 -1 0 -0 -1 0 0 -1 0 0 -1 0 0 -1 0 -0 -1 0 0 -1 0 0 -1 0 0 -1 0 -0 -1 0 0 -1 0 0 -1 0 -0 -1 0 0 -1 0 0 -1 0 0 -1 0 0 -1 0 -0 -1 0 0 -1 0 0 -1 0 0 -1 0 0 -1 0 0 -1 0 -0 -1 0 -0 -1 0 0 -1 0 0 -1 0 0 -1 0 0 -1 0 0 -1 0 0 -1 0 0 -1 0 0 -1 0 0 -1 0 -0 -1 0 0 -1 0 0 -1 0 0 -1 0 -0 -1 0 0 -1 0 0 -1 0 0 -1 0 -0 -1 0 0 -1 0 0 -1 0 0 -1 0 0 -1 0 -0 -1 0 0 -1 0 0 -1 0 0 -1 0 -0 -1 0 0 -1 0 0 -1 0 -0 -1 0 0 -1 0 0 -1 0 0 -1 0 0 -1 0 -0 -1 0 0 -1 0 0 -1 0 0 -1 0 -0 -1 0 0 -1 0 0 -1 0 0 -1 0 -0 -1 0 0 -1 0 0 -1 0 0 -1 0 -0 -1 0 0 -1 0 0 -1 0 -0 -1 0 0 -1 0 0 -1 0 0 -1 0 -0 -1 0 0 -1 0 0 -1 0 0 -1 0 -0 -1 0 0 -1 0 0 -1 0 -0 -1 0 0 -1 0 0 -1 0 0 -1 0 0 -1 0 -0 -1 0 0 -1 0 0 -1</float_array>
          <technique_common>
            <accessor count="1008" source="#cubenormals-array0-array" stride="3">
              <param type="float" name="X"/>
              <param type="float" name="Y"/>
              <param type="float" name="Z"/>
            </accessor>
          </technique_common>
        </source>
        <vertices id="cubeverts-array0-vertices">
          <input semantic="POSITION" source="#cubeverts-array0"/>
        </vertices>
        <triangles count="1008" material="ref_Solid034">
          <input offset="0" semantic="VERTEX" source="#cubeverts-array0-vertices"/>
          <input offset="1" semantic="NORMAL" source="#cubenormals-array0"/>
          <p>0 0 1 0 2 0 1 1 3 1 2 1 4 2 5 2 6 2 2 3 5 3 4 3 3 4 5 4 2 4 5 5 7 5 6 5 6 6 8 6 9 6 7 7 8 7 6 7 9 8 10 8 11 8 8 9 10 9 9 9 11 10 12 10 13 10 10 11 12 11 11 11 14 12 15 12 16 12 13 13 15 13 14 13 12 14 15 14 13 14 15 15 17 15 16 15 18 16 19 16 20 16 16 17 19 17 18 17 17 18 19 18 16 18 19 19 21 19 20 19 21 20 22 20 20 20 20 21 22 21 23 21 22 22 24 22 23 22 23 23 24 23 25 23 24 24 26 24 25 24 27 25 26 25 28 25 25 26 26 26 27 26 26 27 29 27 28 27 28 28 30 28 31 28 29 29 30 29 28 29 31 30 32 30 33 30 30 31 32 31 31 31 34 32 35 32 36 32 33 33 35 33 34 33 32 34 35 34 33 34 35 35 37 35 36 35 36 36 38 36 39 36 37 37 38 37 36 37 39 38 40 38 41 38 38 39 40 39 39 39 41 40 42 40 43 40 40 41 42 41 41 41 43 42 44 42 45 42 42 43 44 43 43 43 45 44 46 44 47 44 44 45 46 45 45 45 47 46 48 46 49 46 46 47 48 47 47 47 49 48 50 48 51 48 48 49 50 49 49 49 51 50 52 50 53 50 50 51 52 51 51 51 53 52 54 52 55 52 52 53 54 53 53 53 54 54 56 54 55 54 55 55 56 55 57 55 56 56 58 56 57 56 57 57 58 57 59 57 58 58 60 58 59 58 61 59 60 59 62 59 59 60 60 60 61 60 60 61 63 61 62 61 63 62 64 62 62 62 62 63 64 63 65 63 64 64 66 64 65 64 65 65 66 65 67 65 67 66 68 66 69 66 66 67 68 67 67 67 69 68 70 68 71 68 68 69 70 69 69 69 71 70 72 70 73 70 70 71 72 71 71 71 72 72 74 72 73 72 73 73 74 73 75 73 74 74 76 74 75 74 75 75 76 75 77 75 76 76 78 76 77 76 77 77 78 77 79 77 78 78 80 78 79 78 79 79 80 79 81 79 80 80 82 80 81 80 81 81 82 81 83 81 82 82 84 82 83 82 83 83 84 83 85 83 84 84 86 84 85 84 85 85 86 85 87 85 86 86 88 86 87 86 89 87 88 87 90 87 87 88 88 88 89 88 88 89 91 89 90 89 91 90 92 90 90 90 90 91 92 91 93 91 92 92 94 92 93 92 93 93 94 93 95 93 94 94 96 94 95 94 97 95 96 95 98 95 95 96 96 96 97 96 96 97 99 97 98 97 99 98 100 98 98 98 98 99 100 99 101 99 100 100 102 100 101 100 101 101 102 101 103 101 102 102 104 102 103 102 103 103 104 103 105 103 104 104 106 104 105 104 105 105 106 105 107 105 107 106 108 106 109 106 106 107 108 107 107 107 109 108 110 108 111 108 108 109 110 109 109 109 111 110 112 110 113 110 110 111 112 111 111 111 113 112 114 112 115 112 112 113 114 113 113 113 115 114 116 114 117 114 114 115 116 115 115 115 117 116 118 116 119 116 116 117 118 117 117 117 119 118 120 118 121 118 118 119 120 119 119 119 121 120 122 120 123 120 120 121 122 121 121 121 122 122 124 122 123 122 123 123 124 123 125 123 124 124 126 124 125 124 127 125 126 125 128 125 125 126 126 126 127 126 126 127 129 127 128 127 128 128 130 128 131 128 129 129 130 129 128 129 130 130 132 130 131 130 131 131 132 131 133 131 132 132 134 132 133 132 133 133 134 133 135 133 134 134 136 134 135 134 135 135 136 135 137 135 136 136 138 136 137 136 139 137 138 137 140 137 137 138 138 138 139 138 138 139 141 139 140 139 141 140 142 140 140 140 140 141 142 141 143 141 142 142 144 142 143 142 143 143 144 143 145 143 144 144 146 144 145 144 145 145 146 145 147 145 146 146 148 146 147 146 147 147 148 147 149 147 150 148 151 148 152 148 149 149 151 149 150 149 148 150 151 150 149 150 151 151 153 151 152 151 152 152 154 152 155 152 153 153 154 153 152 153 154 154 156 154 155 154 157 155 156 155 158 155 155 156 156 156 157 156 156 157 159 157 158 157 158 158 160 158 161 158 159 159 160 159 158 159 161 160 162 160 163 160 160 161 162 161 161 161 164 162 165 162 166 162 163 163 165 163 164 163 162 164 165 164 163 164 165 165 167 165 166 165 166 166 168 166 169 166 167 167 168 167 166 167 170 168 171 168 172 168 169 169 171 169 170 169 168 170 171 170 169 170 172 171 173 171 174 171 171 172 173 172 172 172 173 173 175 173 174 173 175 174 176 174 174 174 177 175 176 175 178 175 174 176 176 176 177 176 176 177 179 177 178 177 178 178 180 178 181 178 179 179 180 179 178 179 180 180 182 180 181 180 181 181 182 181 183 181 182 182 184 182 183 182 185 183 184 183 186 183 183 184 184 184 185 184 184 185 187 185 186 185 187 186 188 186 186 186 186 187 188 187 189 187 189 188 190 188 191 188 188 189 190 189 189 189 190 190 192 190 191 190 191 191 192 191 193 191 193 192 194 192 195 192 192 193 194 193 193 193 195 194 196 194 197 194 194 195 196 195 195 195 197 196 198 196 199 196 196 197 198 197 197 197 199 198 200 198 201 198 198 199 200 199 199 199 201 200 202 200 203 200 200 201 202 201 201 201 203 202 204 202 205 202 202 203 204 203 203 203 205 204 206 204 207 204 204 205 206 205 205 205 207 206 208 206 209 206 206 207 208 207 207 207 209 208 210 208 211 208 208 209 210 209 209 209 211 210 212 210 213 210 210 211 212 211 211 211 214 212 215 212 216 212 213 213 215 213 214 213 212 214 215 214 213 214 215 215 217 215 216 215 218 216 219 216 220 216 216 217 219 217 218 217 217 218 219 218 216 218 219 219 221 219 220 219 222 220 223 220 224 220 220 221 223 221 222 221 221 222 223 222 220 222 223 223 225 223 224 223 225 224 226 224 224 224 224 225 226 225 227 225 226 226 228 226 227 226 229 227 228 227 230 227 227 228 228 228 229 228 228 229 231 229 230 229 232 230 233 230 234 230 230 231 233 231 232 231 231 232 233 232 230 232 233 233 235 233 234 233 236 234 237 234 238 234 234 235 237 235 236 235 235 236 237 236 234 236 237 237 239 237 238 237 238 238 240 238 241 238 239 239 240 239 238 239 242 240 243 240 244 240 241 241 243 241 242 241 240 242 243 242 241 242 244 243 245 243 246 243 243 244 245 244 244 244 245 245 247 245 246 245 248 246 249 246 250 246 246 247 249 247 248 247 247 248 249 248 246 248 250 249 251 249 0 249 249 250 251 250 250 250 251 251 1 251 0 251 252 252 253 252 254 252 255 253 252 253 254 253 256 254 254 254 257 254 256 255 255 255 254 255 258 256 257 256 259 256 258 257 256 257 257 257 260 258 259 258 261 258 260 259 258 259 259 259 262 260 261 260 263 260 262 261 260 261 261 261 264 262 263 262 265 262 264 263 262 263 263 263 266 264 265 264 267 264 266 265 267 265 268 265 266 266 264 266 265 266 269 267 266 267 268 267 270 268 268 268 271 268 270 269 269 269 268 269 272 270 271 270 273 270 272 271 270 271 271 271 274 272 272 272 273 272 274 273 273 273 275 273 274 274 275 274 276 274 277 275 274 275 276 275 278 276 277 276 276 276 278 277 276 277 279 277 280 278 278 278 279 278 280 279 279 279 281 279 280 280 281 280 282 280 283 281 280 281 282 281 284 282 283 282 282 282 284 283 282 283 285 283 286 284 284 284 285 284 286 285 285 285 287 285 288 286 286 286 287 286 288 287 287 287 289 287 290 288 288 288 289 288 290 289 289 289 291 289 290 290 291 290 292 290 293 291 290 291 292 291 294 292 293 292 292 292 294 293 292 293 295 293 296 294 294 294 295 294 296 295 295 295 297 295 298 296 297 296 299 296 298 297 296 297 297 297 298 298 299 298 300 298 301 299 298 299 300 299 302 300 300 300 303 300 302 301 301 301 300 301 304 302 303 302 305 302 304 303 302 303 303 303 306 304 305 304 307 304 306 305 304 305 305 305 308 306 307 306 309 306 308 307 309 307 310 307 308 308 306 308 307 308 311 309 308 309 310 309 312 310 310 310 313 310 312 311 313 311 314 311 312 312 311 312 310 312 315 313 312 313 314 313 316 314 314 314 317 314 316 315 315 315 314 315 318 316 317 316 319 316 318 317 316 317 317 317 320 318 319 318 321 318 320 319 318 319 319 319 322 320 321 320 323 320 322 321 320 321 321 321 324 322 323 322 325 322 324 323 322 323 323 323 326 324 324 324 325 324 326 325 325 325 327 325 328 326 326 326 327 326 328 327 327 327 329 327 328 328 329 328 330 328 331 329 328 329 330 329 332 330 331 330 330 330 332 331 330 331 333 331 334 332 332 332 333 332 334 333 333 333 335 333 336 334 334 334 335 334 336 335 335 335 337 335 336 336 337 336 338 336 339 337 336 337 338 337 339 338 338 338 340 338 341 339 339 339 340 339 342 340 341 340 340 340 342 341 340 341 343 341 344 342 342 342 343 342 344 343 343 343 345 343 346 344 344 344 345 344 346 345 345 345 347 345 348 346 346 346 347 346 348 347 347 347 349 347 350 348 348 348 349 348 350 349 349 349 351 349 352 350 350 350 351 350 352 351 351 351 353 351 354 352 352 352 353 352 354 353 353 353 355 353 356 354 354 354 355 354 356 355 355 355 357 355 358 356 356 356 357 356 358 357 357 357 359 357 360 358 358 358 359 358 360 359 359 359 361 359 362 360 360 360 361 360 362 361 361 361 363 361 364 362 362 362 363 362 364 363 363 363 365 363 366 364 364 364 365 364 366 365 365 365 367 365 368 366 367 366 369 366 368 367 366 367 367 367 370 368 369 368 371 368 370 369 368 369 369 369 372 370 371 370 373 370 372 371 370 371 371 371 374 372 373 372 375 372 374 373 375 373 376 373 374 374 372 374 373 374 377 375 374 375 376 375 378 376 377 376 376 376 378 377 376 377 379 377 380 378 378 378 379 378 380 379 379 379 381 379 382 380 380 380 381 380 382 381 381 381 383 381 384 382 382 382 383 382 384 383 383 383 385 383 386 384 384 384 385 384 386 385 385 385 387 385 386 386 387 386 388 386 389 387 386 387 388 387 390 388 389 388 388 388 390 389 388 389 391 389 392 390 390 390 391 390 392 391 391 391 393 391 392 392 393 392 394 392 395 393 392 393 394 393 396 394 395 394 394 394 396 395 394 395 397 395 398 396 396 396 397 396 398 397 397 397 399 397 400 398 398 398 399 398 400 399 399 399 401 399 402 400 401 400 403 400 402 401 400 401 401 401 404 402 403 402 405 402 404 403 405 403 406 403 404 404 402 404 403 404 407 405 404 405 406 405 408 406 406 406 409 406 408 407 407 407 406 407 410 408 409 408 411 408 410 409 408 409 409 409 412 410 411 410 413 410 412 411 413 411 414 411 412 412 410 412 411 412 415 413 412 413 414 413 416 414 414 414 417 414 416 415 417 415 418 415 416 416 415 416 414 416 419 417 416 417 418 417 420 418 418 418 421 418 420 419 421 419 422 419 420 420 419 420 418 420 423 421 422 421 424 421 423 422 420 422 422 422 425 423 424 423 426 423 425 424 423 424 424 424 427 425 425 425 426 425 428 426 427 426 426 426 428 427 426 427 429 427 430 428 428 428 429 428 430 429 429 429 431 429 432 430 430 430 431 430 432 431 431 431 433 431 434 432 432 432 433 432 434 433 433 433 435 433 436 434 435 434 437 434 436 435 434 435 435 435 438 436 437 436 439 436 438 437 436 437 437 437 440 438 439 438 441 438 440 439 438 439 439 439 442 440 441 440 443 440 442 441 443 441 444 441 442 442 440 442 441 442 445 443 442 443 444 443 446 444 444 444 447 444 446 445 445 445 444 445 448 446 447 446 449 446 448 447 446 447 447 447 450 448 449 448 451 448 450 449 451 449 452 449 450 450 448 450 449 450 453 451 450 451 452 451 454 452 452 452 455 452 454 453 453 453 452 453 456 454 455 454 457 454 456 455 454 455 455 455 458 456 457 456 459 456 458 457 456 457 457 457 460 458 459 458 461 458 460 459 458 459 459 459 462 460 461 460 463 460 462 461 463 461 464 461 462 462 460 462 461 462 465 463 462 463 464 463 466 464 464 464 467 464 466 465 465 465 464 465 468 466 467 466 469 466 468 467 466 467 467 467 470 468 469 468 471 468 470 469 468 469 469 469 472 470 471 470 473 470 472 471 473 471 474 471 472 472 470 472 471 472 475 473 472 473 474 473 476 474 475 474 474 474 476 475 474 475 477 475 478 476 476 476 477 476 478 477 477 477 479 477 480 478 478 478 479 478 480 479 479 479 481 479 480 480 481 480 482 480 483 481 480 481 482 481 484 482 483 482 482 482 484 483 482 483 485 483 484 484 485 484 486 484 487 485 484 485 486 485 488 486 487 486 486 486 488 487 486 487 489 487 490 488 488 488 489 488 490 489 489 489 491 489 490 490 491 490 492 490 493 491 490 491 492 491 494 492 493 492 492 492 494 493 492 493 495 493 494 494 495 494 496 494 497 495 494 495 496 495 498 496 497 496 496 496 498 497 496 497 499 497 498 498 499 498 500 498 501 499 498 499 500 499 502 500 500 500 503 500 502 501 501 501 500 501 252 502 503 502 253 502 252 503 502 503 503 503 32 504 283 504 284 504 30 505 280 505 283 505 30 506 283 506 32 506 35 507 284 507 286 507 35 508 32 508 284 508 29 509 280 509 30 509 29 510 278 510 280 510 37 511 286 511 288 511 37 512 35 512 286 512 26 513 278 513 29 513 26 514 277 514 278 514 38 515 288 515 290 515 38 516 37 516 288 516 24 517 277 517 26 517 24 518 274 518 277 518 40 519 290 519 293 519 40 520 38 520 290 520 22 521 274 521 24 521 22 522 272 522 274 522 42 523 293 523 294 523 42 524 40 524 293 524 21 525 270 525 272 525 21 526 272 526 22 526 44 527 42 527 294 527 44 528 294 528 296 528 19 529 269 529 270 529 19 530 270 530 21 530 46 531 296 531 298 531 46 532 44 532 296 532 17 533 266 533 269 533 17 534 269 534 19 534 48 535 46 535 298 535 48 536 298 536 301 536 15 537 264 537 266 537 15 538 266 538 17 538 50 539 301 539 302 539 50 540 48 540 301 540 12 541 262 541 264 541 12 542 264 542 15 542 52 543 302 543 304 543 52 544 50 544 302 544 10 545 260 545 262 545 10 546 262 546 12 546 54 547 52 547 304 547 54 548 304 548 306 548 8 549 258 549 260 549 8 550 260 550 10 550 56 551 306 551 308 551 56 552 54 552 306 552 7 553 256 553 258 553 7 554 258 554 8 554 58 555 308 555 311 555 58 556 56 556 308 556 5 557 255 557 256 557 5 558 256 558 7 558 60 559 58 559 311 559 60 560 311 560 312 560 3 561 252 561 255 561 3 562 255 562 5 562 63 563 312 563 315 563 63 564 60 564 312 564 1 565 502 565 252 565 1 566 252 566 3 566 64 567 315 567 316 567 64 568 63 568 315 568 251 569 501 569 502 569 251 570 502 570 1 570 66 571 316 571 318 571 66 572 64 572 316 572 249 573 498 573 501 573 249 574 501 574 251 574 68 575 318 575 320 575 68 576 66 576 318 576 247 577 497 577 498 577 247 578 498 578 249 578 70 579 320 579 322 579 70 580 68 580 320 580 245 581 494 581 497 581 245 582 497 582 247 582 72 583 70 583 322 583 72 584 322 584 324 584 243 585 494 585 245 585 243 586 493 586 494 586 74 587 72 587 324 587 74 588 324 588 326 588 240 589 493 589 243 589 240 590 490 590 493 590 76 591 74 591 326 591 76 592 326 592 328 592 239 593 488 593 490 593 239 594 490 594 240 594 78 595 76 595 328 595 78 596 328 596 331 596 237 597 487 597 488 597 237 598 488 598 239 598 80 599 331 599 332 599 80 600 78 600 331 600 235 601 484 601 487 601 235 602 487 602 237 602 82 603 332 603 334 603 82 604 80 604 332 604 233 605 484 605 235 605 483 606 484 606 233 606 84 607 334 607 336 607 84 608 82 608 334 608 231 609 483 609 233 609 480 610 483 610 231 610 86 611 336 611 339 611 86 612 84 612 336 612 228 613 480 613 231 613 88 614 339 614 341 614 88 615 86 615 339 615 478 616 480 616 228 616 226 617 478 617 228 617 91 618 341 618 342 618 91 619 88 619 341 619 476 620 478 620 226 620 225 621 476 621 226 621 92 622 342 622 344 622 92 623 91 623 342 623 475 624 476 624 225 624 223 625 475 625 225 625 94 626 344 626 346 626 94 627 92 627 344 627 472 628 475 628 223 628 472 629 223 629 221 629 96 630 94 630 346 630 348 631 96 631 346 631 470 632 472 632 221 632 470 633 221 633 219 633 99 634 96 634 348 634 350 635 99 635 348 635 468 636 470 636 219 636 468 637 219 637 217 637 100 638 99 638 350 638 352 639 100 639 350 639 102 640 100 640 352 640 466 641 468 641 217 641 466 642 217 642 215 642 354 643 102 643 352 643 104 644 102 644 354 644 465 645 466 645 215 645 465 646 215 646 212 646 356 647 104 647 354 647 106 648 104 648 356 648 462 649 465 649 212 649 462 650 212 650 210 650 358 651 106 651 356 651 358 652 108 652 106 652 460 653 210 653 208 653 460 654 462 654 210 654 360 655 108 655 358 655 360 656 110 656 108 656 458 657 208 657 206 657 458 658 460 658 208 658 362 659 110 659 360 659 362 660 112 660 110 660 456 661 206 661 204 661 456 662 458 662 206 662 364 663 112 663 362 663 364 664 114 664 112 664 454 665 204 665 202 665 454 666 456 666 204 666 366 667 114 667 364 667 366 668 116 668 114 668 453 669 202 669 200 669 453 670 454 670 202 670 368 671 116 671 366 671 368 672 118 672 116 672 450 673 200 673 198 673 450 674 453 674 200 674 370 675 120 675 118 675 370 676 118 676 368 676 448 677 450 677 198 677 448 678 198 678 196 678 372 679 120 679 370 679 372 680 122 680 120 680 446 681 448 681 196 681 446 682 196 682 194 682 374 683 122 683 372 683 445 684 446 684 194 684 445 685 194 685 192 685 377 686 126 686 124 686 377 687 124 687 122 687 377 688 122 688 374 688 442 689 445 689 192 689 442 690 192 690 190 690 378 691 126 691 377 691 378 692 129 692 126 692 440 693 442 693 190 693 440 694 190 694 188 694 380 695 129 695 378 695 380 696 130 696 129 696 438 697 440 697 188 697 438 698 188 698 187 698 382 699 130 699 380 699 382 700 132 700 130 700 436 701 438 701 187 701 436 702 187 702 184 702 384 703 132 703 382 703 384 704 134 704 132 704 434 705 436 705 184 705 434 706 184 706 182 706 386 707 134 707 384 707 386 708 136 708 134 708 432 709 182 709 180 709 432 710 434 710 182 710 389 711 138 711 136 711 389 712 136 712 386 712 430 713 180 713 179 713 430 714 432 714 180 714 390 715 138 715 389 715 390 716 141 716 138 716 428 717 430 717 179 717 428 718 179 718 176 718 392 719 141 719 390 719 392 720 142 720 141 720 427 721 176 721 175 721 427 722 428 722 176 722 395 723 142 723 392 723 395 724 144 724 142 724 425 725 175 725 173 725 425 726 427 726 175 726 396 727 144 727 395 727 396 728 146 728 144 728 423 729 173 729 171 729 423 730 425 730 173 730 398 731 146 731 396 731 398 732 148 732 146 732 420 733 171 733 168 733 420 734 423 734 171 734 400 735 148 735 398 735 400 736 151 736 148 736 419 737 420 737 168 737 419 738 168 738 167 738 402 739 151 739 400 739 402 740 153 740 151 740 416 741 419 741 167 741 416 742 167 742 165 742 404 743 153 743 402 743 404 744 154 744 153 744 415 745 416 745 165 745 415 746 165 746 162 746 407 747 154 747 404 747 412 748 415 748 162 748 412 749 162 749 160 749 408 750 154 750 407 750 408 751 159 751 156 751 408 752 156 752 154 752 410 753 412 753 160 753 410 754 159 754 408 754 410 755 160 755 159 755 282 756 33 756 285 756 281 757 31 757 282 757 282 758 31 758 33 758 285 759 34 759 287 759 33 760 34 760 285 760 281 761 28 761 31 761 279 762 28 762 281 762 287 763 36 763 289 763 34 764 36 764 287 764 279 765 27 765 28 765 276 766 27 766 279 766 289 767 39 767 291 767 36 768 39 768 289 768 276 769 25 769 27 769 275 770 25 770 276 770 291 771 41 771 292 771 39 772 41 772 291 772 275 773 23 773 25 773 273 774 23 774 275 774 292 775 43 775 295 775 41 776 43 776 292 776 271 777 20 777 273 777 273 778 20 778 23 778 43 779 45 779 295 779 295 780 45 780 297 780 268 781 18 781 271 781 271 782 18 782 20 782 297 783 47 783 299 783 45 784 47 784 297 784 267 785 16 785 268 785 268 786 16 786 18 786 47 787 49 787 299 787 299 788 49 788 300 788 265 789 14 789 267 789 267 790 14 790 16 790 300 791 51 791 303 791 49 792 51 792 300 792 263 793 13 793 265 793 265 794 13 794 14 794 303 795 53 795 305 795 51 796 53 796 303 796 261 797 11 797 263 797 263 798 11 798 13 798 53 799 55 799 305 799 305 800 55 800 307 800 259 801 9 801 261 801 261 802 9 802 11 802 307 803 57 803 309 803 55 804 57 804 307 804 257 805 6 805 259 805 259 806 6 806 9 806 309 807 59 807 310 807 57 808 59 808 309 808 254 809 4 809 257 809 257 810 4 810 6 810 59 811 61 811 310 811 310 812 61 812 313 812 253 813 2 813 254 813 254 814 2 814 4 814 313 815 62 815 314 815 61 816 62 816 313 816 503 817 0 817 253 817 253 818 0 818 2 818 314 819 65 819 317 819 62 820 65 820 314 820 500 821 250 821 503 821 503 822 250 822 0 822 317 823 67 823 319 823 65 824 67 824 317 824 499 825 248 825 500 825 500 826 248 826 250 826 319 827 69 827 321 827 67 828 69 828 319 828 496 829 246 829 499 829 499 830 246 830 248 830 321 831 71 831 323 831 69 832 71 832 321 832 495 833 244 833 496 833 496 834 244 834 246 834 71 835 73 835 323 835 323 836 73 836 325 836 495 837 242 837 244 837 492 838 242 838 495 838 73 839 75 839 325 839 325 840 75 840 327 840 492 841 241 841 242 841 491 842 241 842 492 842 75 843 77 843 327 843 327 844 77 844 329 844 489 845 238 845 491 845 491 846 238 846 241 846 77 847 79 847 329 847 329 848 79 848 330 848 486 849 236 849 489 849 489 850 236 850 238 850 330 851 81 851 333 851 79 852 81 852 330 852 485 853 234 853 486 853 486 854 234 854 236 854 333 855 83 855 335 855 81 856 83 856 333 856 485 857 232 857 234 857 485 858 482 858 232 858 335 859 85 859 337 859 83 860 85 860 335 860 482 861 230 861 232 861 482 862 481 862 230 862 337 863 87 863 338 863 85 864 87 864 337 864 481 865 229 865 230 865 338 866 89 866 340 866 87 867 89 867 338 867 481 868 479 868 229 868 479 869 227 869 229 869 340 870 90 870 343 870 89 871 90 871 340 871 479 872 477 872 227 872 477 873 224 873 227 873 343 874 93 874 345 874 90 875 93 875 343 875 477 876 474 876 224 876 474 877 222 877 224 877 345 878 95 878 347 878 93 879 95 879 345 879 474 880 473 880 222 880 222 881 473 881 220 881 95 882 97 882 347 882 97 883 349 883 347 883 473 884 471 884 220 884 220 885 471 885 218 885 97 886 98 886 349 886 98 887 351 887 349 887 471 888 469 888 218 888 218 889 469 889 216 889 98 890 101 890 351 890 101 891 353 891 351 891 101 892 103 892 353 892 469 893 467 893 216 893 216 894 467 894 214 894 103 895 355 895 353 895 103 896 105 896 355 896 467 897 464 897 214 897 214 898 464 898 213 898 105 899 357 899 355 899 105 900 107 900 357 900 464 901 463 901 213 901 213 902 463 902 211 902 107 903 359 903 357 903 109 904 359 904 107 904 211 905 461 905 209 905 463 906 461 906 211 906 109 907 361 907 359 907 111 908 361 908 109 908 209 909 459 909 207 909 461 910 459 910 209 910 111 911 363 911 361 911 113 912 363 912 111 912 207 913 457 913 205 913 459 914 457 914 207 914 113 915 365 915 363 915 115 916 365 916 113 916 205 917 455 917 203 917 457 918 455 918 205 918 115 919 367 919 365 919 117 920 367 920 115 920 203 921 452 921 201 921 455 922 452 922 203 922 117 923 369 923 367 923 119 924 369 924 117 924 201 925 451 925 199 925 452 926 451 926 201 926 121 927 371 927 119 927 119 928 371 928 369 928 451 929 449 929 199 929 199 930 449 930 197 930 121 931 373 931 371 931 123 932 373 932 121 932 449 933 447 933 197 933 197 934 447 934 195 934 123 935 375 935 373 935 447 936 444 936 195 936 195 937 444 937 193 937 127 938 376 938 125 938 125 939 376 939 123 939 123 940 376 940 375 940 444 941 443 941 193 941 193 942 443 942 191 942 127 943 379 943 376 943 128 944 379 944 127 944 443 945 441 945 191 945 191 946 441 946 189 946 128 947 381 947 379 947 131 948 381 948 128 948 441 949 439 949 189 949 189 950 439 950 186 950 131 951 383 951 381 951 133 952 383 952 131 952 439 953 437 953 186 953 186 954 437 954 185 954 133 955 385 955 383 955 135 956 385 956 133 956 437 957 435 957 185 957 185 958 435 958 183 958 135 959 387 959 385 959 137 960 387 960 135 960 183 961 433 961 181 961 435 962 433 962 183 962 139 963 388 963 137 963 137 964 388 964 387 964 181 965 431 965 178 965 433 966 431 966 181 966 139 967 391 967 388 967 140 968 391 968 139 968 431 969 429 969 178 969 178 970 429 970 177 970 140 971 393 971 391 971 143 972 393 972 140 972 177 973 426 973 174 973 429 974 426 974 177 974 143 975 394 975 393 975 145 976 394 976 143 976 174 977 424 977 172 977 426 978 424 978 174 978 145 979 397 979 394 979 147 980 397 980 145 980 172 981 422 981 170 981 424 982 422 982 172 982 147 983 399 983 397 983 149 984 399 984 147 984 170 985 421 985 169 985 422 986 421 986 170 986 149 987 401 987 399 987 150 988 401 988 149 988 421 989 418 989 169 989 169 990 418 990 166 990 150 991 403 991 401 991 152 992 403 992 150 992 418 993 417 993 166 993 166 994 417 994 164 994 152 995 405 995 403 995 155 996 405 996 152 996 417 997 414 997 164 997 164 998 414 998 163 998 155 999 406 999 405 999 414 1000 413 1000 163 1000 163 1001 413 1001 161 1001 155 1002 409 1002 406 1002 158 1003 409 1003 157 1003 157 1004 409 1004 155 1004 413 1005 411 1005 161 1005 158 1006 411 1006 409 1006 161 1007 411 1007 158 1007</p>
        </triangles>
      </mesh>
    </geometry>
  </library_geometries>
  <library_materials>
    <material id="mat_Solid034" name="Solid034">
      <instance_effect url="#effect_Solid034"/>
    </material>
  </library_materials>
  <library_visual_scenes>
    <visual_scene id="scene">
      <node id="node0" name="node0">
        <instance_geometry url="#geometry0">
          <bind_material>
            <technique_common>
              <instance_material symbol="ref_Solid034" target="#mat_Solid034"/>
            </technique_common>
          </bind_material>
        </instance_geometry>
      </node>
    </visual_scene>
  </library_visual_scenes>
  <scene>
    <instance_visual_scene url="#scene"/>
  </scene>
</COLLADA>
